<svg width="2580" height="1868" xmlns="http://www.w3.org/2000/svg" xmlns:xlink="http://www.w3.org/1999/xlink" xml:space="preserve" overflow="hidden"><defs><filter id="fx0" x="-10%" y="-10%" width="120%" height="120%" filterUnits="userSpaceOnUse" primitiveUnits="userSpaceOnUse"><feComponentTransfer color-interpolation-filters="sRGB"><feFuncR type="discrete" tableValues="0 0"/><feFuncG type="discrete" tableValues="0 0"/><feFuncB type="discrete" tableValues="0 0"/><feFuncA type="linear" slope="0.631373" intercept="0"/></feComponentTransfer><feGaussianBlur stdDeviation="6.875 6.875"/></filter><filter id="fx1" x="-10%" y="-10%" width="120%" height="120%" filterUnits="userSpaceOnUse" primitiveUnits="userSpaceOnUse"><feComponentTransfer color-interpolation-filters="sRGB"><feFuncR type="discrete" tableValues="0 0"/><feFuncG type="discrete" tableValues="0 0"/><feFuncB type="discrete" tableValues="0 0"/><feFuncA type="linear" slope="0.631373" intercept="0"/></feComponentTransfer><feGaussianBlur stdDeviation="6.875 6.875"/></filter><filter id="fx2" x="-10%" y="-10%" width="120%" height="120%" filterUnits="userSpaceOnUse" primitiveUnits="userSpaceOnUse"><feComponentTransfer color-interpolation-filters="sRGB"><feFuncR type="discrete" tableValues="0 0"/><feFuncG type="discrete" tableValues="0 0"/><feFuncB type="discrete" tableValues="0 0"/><feFuncA type="linear" slope="0.631373" intercept="0"/></feComponentTransfer><feGaussianBlur stdDeviation="6.875 6.875"/></filter><filter id="fx3" x="-10%" y="-10%" width="120%" height="120%" filterUnits="userSpaceOnUse" primitiveUnits="userSpaceOnUse"><feComponentTransfer color-interpolation-filters="sRGB"><feFuncR type="discrete" tableValues="0 0"/><feFuncG type="discrete" tableValues="0 0"/><feFuncB type="discrete" tableValues="0 0"/><feFuncA type="linear" slope="0.631373" intercept="0"/></feComponentTransfer><feGaussianBlur stdDeviation="6.875 6.875"/></filter><filter id="fx4" x="-10%" y="-10%" width="120%" height="120%" filterUnits="userSpaceOnUse" primitiveUnits="userSpaceOnUse"><feComponentTransfer color-interpolation-filters="sRGB"><feFuncR type="discrete" tableValues="0 0"/><feFuncG type="discrete" tableValues="0 0"/><feFuncB type="discrete" tableValues="0 0"/><feFuncA type="linear" slope="0.631373" intercept="0"/></feComponentTransfer><feGaussianBlur stdDeviation="6.875 6.875"/></filter><filter id="fx5" x="-10%" y="-10%" width="120%" height="120%" filterUnits="userSpaceOnUse" primitiveUnits="userSpaceOnUse"><feComponentTransfer color-interpolation-filters="sRGB"><feFuncR type="discrete" tableValues="0 0"/><feFuncG type="discrete" tableValues="0 0"/><feFuncB type="discrete" tableValues="0 0"/><feFuncA type="linear" slope="0.631373" intercept="0"/></feComponentTransfer><feGaussianBlur stdDeviation="6.875 6.875"/></filter><filter id="fx6" x="-10%" y="-10%" width="120%" height="120%" filterUnits="userSpaceOnUse" primitiveUnits="userSpaceOnUse"><feComponentTransfer color-interpolation-filters="sRGB"><feFuncR type="discrete" tableValues="0 0"/><feFuncG type="discrete" tableValues="0 0"/><feFuncB type="discrete" tableValues="0 0"/><feFuncA type="linear" slope="0.631373" intercept="0"/></feComponentTransfer><feGaussianBlur stdDeviation="6.875 6.875"/></filter><filter id="fx7" x="-10%" y="-10%" width="120%" height="120%" filterUnits="userSpaceOnUse" primitiveUnits="userSpaceOnUse"><feComponentTransfer color-interpolation-filters="sRGB"><feFuncR type="discrete" tableValues="0 0"/><feFuncG type="discrete" tableValues="0 0"/><feFuncB type="discrete" tableValues="0 0"/><feFuncA type="linear" slope="0.631373" intercept="0"/></feComponentTransfer><feGaussianBlur stdDeviation="6.875 6.875"/></filter><filter id="fx8" x="-10%" y="-10%" width="120%" height="120%" filterUnits="userSpaceOnUse" primitiveUnits="userSpaceOnUse"><feComponentTransfer color-interpolation-filters="sRGB"><feFuncR type="discrete" tableValues="0 0"/><feFuncG type="discrete" tableValues="0 0"/><feFuncB type="discrete" tableValues="0 0"/><feFuncA type="linear" slope="0.631373" intercept="0"/></feComponentTransfer><feGaussianBlur stdDeviation="6.875 6.875"/></filter><filter id="fx9" x="-10%" y="-10%" width="120%" height="120%" filterUnits="userSpaceOnUse" primitiveUnits="userSpaceOnUse"><feComponentTransfer color-interpolation-filters="sRGB"><feFuncR type="discrete" tableValues="0 0"/><feFuncG type="discrete" tableValues="0 0"/><feFuncB type="discrete" tableValues="0 0"/><feFuncA type="linear" slope="0.631373" intercept="0"/></feComponentTransfer><feGaussianBlur stdDeviation="6.875 6.875"/></filter><filter id="fx10" x="-10%" y="-10%" width="120%" height="120%" filterUnits="userSpaceOnUse" primitiveUnits="userSpaceOnUse"><feComponentTransfer color-interpolation-filters="sRGB"><feFuncR type="discrete" tableValues="0 0"/><feFuncG type="discrete" tableValues="0 0"/><feFuncB type="discrete" tableValues="0 0"/><feFuncA type="linear" slope="0.631373" intercept="0"/></feComponentTransfer><feGaussianBlur stdDeviation="6.875 6.875"/></filter><filter id="fx11" x="-10%" y="-10%" width="120%" height="120%" filterUnits="userSpaceOnUse" primitiveUnits="userSpaceOnUse"><feComponentTransfer color-interpolation-filters="sRGB"><feFuncR type="discrete" tableValues="0 0"/><feFuncG type="discrete" tableValues="0 0"/><feFuncB type="discrete" tableValues="0 0"/><feFuncA type="linear" slope="0.631373" intercept="0"/></feComponentTransfer><feGaussianBlur stdDeviation="6.875 6.875"/></filter><clipPath id="clip12"><rect x="735" y="322" width="2580" height="1868"/></clipPath><linearGradient x1="1177" y1="994.5" x2="1177" y2="1301.5" gradientUnits="userSpaceOnUse" spreadMethod="reflect" id="fill13"><stop offset="0" stop-color="#9B9B9B"/><stop offset="0.5" stop-color="#8E8E8E"/><stop offset="1" stop-color="#797979"/></linearGradient><linearGradient x1="2039" y1="854.5" x2="2039" y2="1088.5" gradientUnits="userSpaceOnUse" spreadMethod="reflect" id="fill14"><stop offset="0" stop-color="#497491"/><stop offset="0.5" stop-color="#106287"/><stop offset="1" stop-color="#08587C"/></linearGradient><clipPath id="clip15"><rect x="56" y="45" width="243" height="103"/></clipPath><linearGradient x1="2933" y1="651" x2="2933" y2="826" gradientUnits="userSpaceOnUse" spreadMethod="reflect" id="fill16"><stop offset="0" stop-color="#4A7E4E"/><stop offset="0.5" stop-color="#156F21"/><stop offset="1" stop-color="#0E6519"/></linearGradient><clipPath id="clip17"><rect x="49" y="45" width="247" height="103"/></clipPath><linearGradient x1="2933" y1="991" x2="2933" y2="1166" gradientUnits="userSpaceOnUse" spreadMethod="reflect" id="fill18"><stop offset="0" stop-color="#4A7E4E"/><stop offset="0.5" stop-color="#156F21"/><stop offset="1" stop-color="#0E6519"/></linearGradient><linearGradient x1="2037.5" y1="1307.5" x2="2037.5" y2="1542.5" gradientUnits="userSpaceOnUse" spreadMethod="reflect" id="fill19"><stop offset="0" stop-color="#497491"/><stop offset="0.5" stop-color="#106287"/><stop offset="1" stop-color="#08587C"/></linearGradient><clipPath id="clip20"><rect x="56" y="45" width="243" height="103"/></clipPath><linearGradient x1="2930" y1="1225" x2="2930" y2="1401" gradientUnits="userSpaceOnUse" spreadMethod="reflect" id="fill21"><stop offset="0" stop-color="#4A7E4E"/><stop offset="0.5" stop-color="#156F21"/><stop offset="1" stop-color="#0E6519"/></linearGradient><clipPath id="clip22"><rect x="49" y="45" width="247" height="103"/></clipPath><linearGradient x1="2933" y1="1550" x2="2933" y2="1726" gradientUnits="userSpaceOnUse" spreadMethod="reflect" id="fill23"><stop offset="0" stop-color="#4A7E4E"/><stop offset="0.5" stop-color="#156F21"/><stop offset="1" stop-color="#0E6519"/></linearGradient><linearGradient x1="1172.5" y1="1764.5" x2="1172.5" y2="2072.5" gradientUnits="userSpaceOnUse" spreadMethod="reflect" id="fill24"><stop offset="0" stop-color="#9B9B9B"/><stop offset="0.5" stop-color="#8E8E8E"/><stop offset="1" stop-color="#797979"/></linearGradient><clipPath id="clip25"><rect x="34" y="34" width="519" height="247"/></clipPath><linearGradient x1="2034" y1="1763" x2="2034" y2="2072" gradientUnits="userSpaceOnUse" spreadMethod="reflect" id="fill26"><stop offset="0" stop-color="#497491"/><stop offset="0.5" stop-color="#106287"/><stop offset="1" stop-color="#08587C"/></linearGradient><clipPath id="clip27"><rect x="34" y="34" width="523" height="247"/></clipPath><linearGradient x1="2933" y1="1763" x2="2933" y2="2072" gradientUnits="userSpaceOnUse" spreadMethod="reflect" id="fill28"><stop offset="0" stop-color="#4A7E4E"/><stop offset="0.5" stop-color="#156F21"/><stop offset="1" stop-color="#0E6519"/></linearGradient></defs><g clip-path="url(#clip12)" transform="translate(-735 -322)"><path d="M763 403C763 358.265 799.265 322 844 322L1492 322C1536.74 322 1573 358.265 1573 403L1573 2109C1573 2153.74 1536.74 2190 1492 2190L844 2190C799.265 2190 763 2153.74 763 2109Z" fill="#D1D1D1" fill-rule="evenodd"/><text font-family="Abadi,Abadi_MSFontService,sans-serif" font-weight="400" font-size="110" transform="matrix(1 0 0 1 797.508 567)">1. Global Scope</text><text font-family="Abadi,Abadi_MSFontService,sans-serif" font-weight="400" font-size="83" transform="matrix(1 0 0 1 1072.23 702)">(root)</text><path d="M1643 403C1643 358.265 1679.27 322 1724 322L2372 322C2416.74 322 2453 358.265 2453 403L2453 2109C2453 2153.74 2416.74 2190 2372 2190L1724 2190C1679.27 2190 1643 2153.74 1643 2109Z" fill="#A6CAEC" fill-rule="evenodd"/><text font-family="Abadi,Abadi_MSFontService,sans-serif" font-weight="400" font-size="110" transform="matrix(1 0 0 1 1831.81 506)">2. Sweep </text><text font-family="Abadi,Abadi_MSFontService,sans-serif" font-weight="400" font-size="110" transform="matrix(1 0 0 1 1883.31 618)">groups </text><text font-family="Abadi,Abadi_MSFontService,sans-serif" font-weight="400" font-size="92" transform="matrix(1 0 0 1 1904.53 760)">(nodes)</text><path d="M2505 403C2505 358.265 2541.26 322 2586 322L3234 322C3278.74 322 3315 358.265 3315 403L3315 2109C3315 2153.74 3278.74 2190 3234 2190L2586 2190C2541.26 2190 2505 2153.74 2505 2109Z" fill="#D9F2D0" fill-rule="evenodd"/><text font-family="Abadi,Abadi_MSFontService,sans-serif" font-weight="400" font-size="110" transform="matrix(1 0 0 1 2631.63 572)">3. Variables</text><path d="M831.5 1025.2C831.5 1008.24 845.245 994.5 862.2 994.5L1491.8 994.5C1508.76 994.5 1522.5 1008.24 1522.5 1025.2L1522.5 1270.8C1522.5 1287.76 1508.76 1301.5 1491.8 1301.5L862.2 1301.5C845.245 1301.5 831.5 1287.76 831.5 1270.8Z" stroke="#000000" stroke-width="4.58333" stroke-miterlimit="8" fill="url(#fill13)" fill-rule="evenodd"/><text font-family="Aptos,Aptos_MSFontService,sans-serif" font-weight="400" font-size="92" transform="matrix(1 0 0 1 939.164 1172)">radar_name</text><path d="M1522.36 1147.16 1731.47 970.803" stroke="#0E4B66" stroke-width="6.875" stroke-miterlimit="8" fill="none" fill-rule="evenodd"/><path d="M1731.5 877.9C1731.5 864.977 1741.98 854.5 1754.9 854.5L2323.1 854.5C2336.02 854.5 2346.5 864.977 2346.5 877.9L2346.5 1065.1C2346.5 1078.02 2336.02 1088.5 2323.1 1088.5L1754.9 1088.5C1741.98 1088.5 1731.5 1078.02 1731.5 1065.1Z" stroke="#156082" stroke-width="4.58333" stroke-miterlimit="8" fill="url(#fill14)" fill-rule="evenodd"/><text fill="#FFFFFF" font-family="Aptos,Aptos_MSFontService,sans-serif" font-weight="400" font-size="92" transform="matrix(1 0 0 1 1959.86 996)">0.5</text><text fill="#FFFFFF" font-family="Aptos,Aptos_MSFontService,sans-serif" font-weight="400" font-size="92" transform="matrix(1 0 0 1 2084 996)">°</text><path d="M2345.87 970.803 2625.81 738.445" stroke="#125675" stroke-width="6.875" stroke-miterlimit="8" fill="none" fill-rule="evenodd"/><g filter="url(#fx0)" transform="translate(2604 636)"><g><path d="M22 39.3752C22 29.7101 29.835 21.8751 39.5001 21.8751L618.5 21.8751C628.165 21.8751 636 29.7101 636 39.3752L636 179.375C636 189.04 628.165 196.875 618.5 196.875L39.5001 196.875C29.835 196.875 22 189.04 22 179.375Z" fill="#FF0000" fill-rule="evenodd"/></g></g><g clip-path="url(#clip15)" filter="url(#fx1)" transform="translate(2757 643)"><g><path d="M7.13281 0 7.13281-54.5498 25.4917-54.5498C31.1925-54.5498 36.0558-53.4758 40.0815-51.3279 44.1073-49.1799 47.1738-46.0661 49.2812-41.9863 51.3887-37.9066 52.4424-33.0028 52.4424-27.2749 52.4424-21.52 51.3819-16.6027 49.261-12.5229 47.1401-8.4432 44.0667-5.3361 40.041-3.20166 36.0153-1.06722 31.1655 0 25.4917 0ZM14.4277-6.11963 23.8706-6.11963C28.6528-6.11963 32.5975-6.88289 35.7046-8.40942 38.8117-9.93595 41.1285-12.273 42.655-15.4207 44.1816-18.5683 44.9448-22.5332 44.9448-27.3154 44.9448-32.0706 44.168-36.0085 42.6145-39.1291 41.0609-42.2497 38.7239-44.5801 35.6033-46.1201 32.4827-47.6601 28.5718-48.4302 23.8706-48.4302L14.4277-48.4302ZM63.737 0 63.737-54.5498 81.2448-54.5498C86.7295-54.5498 91.1132-53.4421 94.3959-51.2266 97.6786-49.0111 99.32-45.6338 99.32-41.0947 99.32-38.2308 98.5162-35.6776 96.9086-33.4351 95.301-31.1925 93.1733-29.7336 90.5255-29.0581 94.3081-28.4367 97.3206-26.9304 99.5631-24.5393 101.806-22.1482 102.927-19.1964 102.927-15.6841 102.927-12.3879 102.197-9.57121 100.738-7.23413 99.2794-4.89705 97.0775-3.1071 94.1325-1.86426 91.1875-0.621419 87.4725 0 82.9875 0ZM71.0319-6.0791 82.8659-6.0791C85.1624-6.0791 87.2834-6.36955 89.2287-6.95044 91.174-7.53133 92.7275-8.55802 93.8893-10.0305 95.0511-11.503 95.632-13.5361 95.632-16.1299 95.632-19.264 94.4972-21.6011 92.2277-23.1411 89.9582-24.6811 86.8376-25.4512 82.8659-25.4512L71.0319-25.4512ZM71.0319-31.3682 81.2043-31.3682C84.7166-31.3682 87.3982-32.172 89.2489-33.7795 91.0997-35.3871 92.0251-37.5553 92.0251-40.2842 92.0251-42.1214 91.6063-43.6547 90.7687-44.884 89.9311-46.1134 88.7086-47.032 87.101-47.6399 85.4934-48.2478 83.5278-48.5518 81.2043-48.5518L71.0319-48.5518ZM108.601 0 108.601-5.75488 138.146-48.4302 110.506-48.4302 110.506-54.5498 146.697-54.5498 146.697-48.9976 116.991-6.11963 148.237-6.11963 148.237 0ZM156.687 0 156.687-54.5498 163.982-54.5498 163.982-31.6519 193.81-31.6519 193.81-54.5498 201.024-54.5498 201.024 0 193.81 0 193.81-25.3296 163.982-25.3296 163.982 0Z" fill="#FFFFFF" transform="matrix(1 0 0 1 72.0713 125)"/></g></g><path d="M2626 668.5C2626 658.835 2633.83 651 2643.5 651L3222.5 651C3232.16 651 3240 658.835 3240 668.5L3240 808.5C3240 818.165 3232.16 826 3222.5 826L2643.5 826C2633.83 826 2626 818.165 2626 808.5Z" fill="url(#fill16)" fill-rule="evenodd"/><text fill="#FFFFFF" font-family="Aptos,Aptos_MSFontService,sans-serif" font-weight="400" font-size="83" transform="matrix(1 0 0 1 2829.07 761)">DBZH</text><path d="M2345.87 970.803 2625.76 1078.44" stroke="#125675" stroke-width="6.875" stroke-miterlimit="8" fill="none" fill-rule="evenodd"/><g filter="url(#fx2)" transform="translate(2604 976)"><g><path d="M22 39.3752C22 29.7101 29.835 21.8751 39.5001 21.8751L618.5 21.8751C628.165 21.8751 636 29.7101 636 39.3752L636 179.375C636 189.04 628.165 196.875 618.5 196.875L39.5001 196.875C29.835 196.875 22 189.04 22 179.375Z" fill="#FF0000" fill-rule="evenodd"/></g></g><g clip-path="url(#clip17)" filter="url(#fx3)" transform="translate(2759 983)"><g><path d="M19.9395 0 0.324219-54.5498 8.06494-54.5498 24.2759-7.70019 40.5679-54.5498 48.2681-54.5498 28.4502 0ZM55.4411 0 55.4411-54.5498 76.0696-54.5498C79.2307-54.5498 82.1014-54.05 84.6816-53.0503 87.2619-52.0506 89.322-50.4836 90.862-48.3491 92.4021-46.2147 93.1721-43.4453 93.1721-40.041 93.1721-36.5827 92.2062-33.6377 90.2744-31.2061 88.3426-28.7744 85.5124-27.1263 81.7839-26.2617 83.8373-25.9645 85.5259-25.3026 86.8498-24.2759 88.1737-23.2492 89.2747-21.8645 90.1528-20.1218 91.0309-18.3791 91.7942-16.2244 92.4426-13.6577L96.009 0 88.552 0 85.4314-12.5229C84.891-14.7655 84.2493-16.677 83.5063-18.2576 82.7633-19.8381 81.7704-21.0404 80.5276-21.8645 79.2847-22.6886 77.6231-23.1006 75.5427-23.1006L62.7361-23.1006 62.7361 0ZM62.7361-29.1797 75.1374-29.1797C77.1368-29.1797 78.947-29.5579 80.5681-30.3145 82.1892-31.071 83.4793-32.1652 84.4385-33.5972 85.3976-35.0291 85.8772-36.7583 85.8772-38.7847 85.8772-41.8377 84.9788-44.2153 83.1821-45.9175 81.3854-47.6196 78.7714-48.4707 75.3401-48.4707L62.7361-48.4707ZM98.293 0 118.719-54.5498 126.419-54.5498 146.561 0 139.023 0 133.835-15.2788 111.221-15.2788 105.791 0ZM113.207-21.3984 131.769-21.3984 122.528-47.2954ZM153.731 0 153.731-54.5498 172.09-54.5498C177.79-54.5498 182.654-53.4758 186.679-51.3279 190.705-49.1799 193.772-46.0661 195.879-41.9863 197.987-37.9066 199.04-33.0028 199.04-27.2749 199.04-21.52 197.98-16.6027 195.859-12.5229 193.738-8.4432 190.665-5.3361 186.639-3.20166 182.613-1.06722 177.763 0 172.09 0ZM161.026-6.11963 170.469-6.11963C175.251-6.11963 179.195-6.88289 182.303-8.40942 185.41-9.93595 187.726-12.273 189.253-15.4207 190.779-18.5683 191.543-22.5332 191.543-27.3154 191.543-32.0706 190.766-36.0085 189.212-39.1291 187.659-42.2497 185.322-44.5801 182.201-46.1201 179.081-47.6601 175.17-48.4302 170.469-48.4302L161.026-48.4302Z" fill="#FFFFFF" transform="matrix(1 0 0 1 72.3599 125)"/></g></g><path d="M2626 1008.5C2626 998.835 2633.83 991 2643.5 991L3222.5 991C3232.16 991 3240 998.835 3240 1008.5L3240 1148.5C3240 1158.16 3232.16 1166 3222.5 1166L2643.5 1166C2633.83 1166 2626 1158.16 2626 1148.5Z" fill="url(#fill18)" fill-rule="evenodd"/><text fill="#FFFFFF" font-family="Aptos,Aptos_MSFontService,sans-serif" font-weight="400" font-size="83" transform="matrix(1 0 0 1 2831.36 1101)">VRAD</text><path d="M1522.36 1147.16 1729.76 1424.56" stroke="#0E4B66" stroke-width="6.875" stroke-miterlimit="8" fill="none" fill-rule="evenodd"/><path d="M1730.5 1331C1730.5 1318.02 1741.02 1307.5 1754 1307.5L2321 1307.5C2333.98 1307.5 2344.5 1318.02 2344.5 1331L2344.5 1519C2344.5 1531.98 2333.98 1542.5 2321 1542.5L1754 1542.5C1741.02 1542.5 1730.5 1531.98 1730.5 1519Z" stroke="#156082" stroke-width="4.58333" stroke-miterlimit="8" fill="url(#fill19)" fill-rule="evenodd"/><text fill="#FFFFFF" font-family="Aptos,Aptos_MSFontService,sans-serif" font-weight="400" font-size="92" transform="matrix(1 0 0 1 1827.73 1450)">nth</text><text fill="#FFFFFF" font-family="Aptos,Aptos_MSFontService,sans-serif" font-weight="400" font-size="92" transform="matrix(1 0 0 1 1958.42 1450)">-</text><text fill="#FFFFFF" font-family="Aptos,Aptos_MSFontService,sans-serif" font-weight="400" font-size="92" transform="matrix(1 0 0 1 1989.61 1450)">sweep</text><path d="M2344.16 1424.56 2622.91 1312.94" stroke="#125675" stroke-width="6.875" stroke-miterlimit="8" fill="none" fill-rule="evenodd"/><g filter="url(#fx4)" transform="translate(2601 1210)"><g><path d="M22.0002 39.4753C22.0002 29.755 29.8801 21.8751 39.6004 21.8751L618.4 21.8751C628.12 21.8751 636 29.755 636 39.4753L636 180.275C636 189.995 628.12 197.875 618.4 197.875L39.6004 197.875C29.8801 197.875 22.0002 189.995 22.0002 180.275Z" fill="#FF0000" fill-rule="evenodd"/></g></g><g clip-path="url(#clip20)" filter="url(#fx5)" transform="translate(2754 1218)"><g><path d="M7.13281 0 7.13281-54.5498 25.4917-54.5498C31.1925-54.5498 36.0558-53.4758 40.0815-51.3279 44.1073-49.1799 47.1738-46.0661 49.2812-41.9863 51.3887-37.9066 52.4424-33.0028 52.4424-27.2749 52.4424-21.52 51.3819-16.6027 49.261-12.5229 47.1401-8.4432 44.0667-5.3361 40.041-3.20166 36.0153-1.06722 31.1655 0 25.4917 0ZM14.4277-6.11963 23.8706-6.11963C28.6528-6.11963 32.5975-6.88289 35.7046-8.40942 38.8117-9.93595 41.1285-12.273 42.655-15.4207 44.1816-18.5683 44.9448-22.5332 44.9448-27.3154 44.9448-32.0706 44.168-36.0085 42.6145-39.1291 41.0609-42.2497 38.7239-44.5801 35.6033-46.1201 32.4827-47.6601 28.5718-48.4302 23.8706-48.4302L14.4277-48.4302ZM63.737 0 63.737-54.5498 81.2448-54.5498C86.7295-54.5498 91.1132-53.4421 94.3959-51.2266 97.6786-49.0111 99.32-45.6338 99.32-41.0947 99.32-38.2308 98.5162-35.6776 96.9086-33.4351 95.301-31.1925 93.1733-29.7336 90.5255-29.0581 94.3081-28.4367 97.3206-26.9304 99.5631-24.5393 101.806-22.1482 102.927-19.1964 102.927-15.6841 102.927-12.3879 102.197-9.57121 100.738-7.23413 99.2794-4.89705 97.0775-3.1071 94.1325-1.86426 91.1875-0.621419 87.4725 0 82.9875 0ZM71.0319-6.0791 82.8659-6.0791C85.1624-6.0791 87.2834-6.36955 89.2287-6.95044 91.174-7.53133 92.7275-8.55802 93.8893-10.0305 95.0511-11.503 95.632-13.5361 95.632-16.1299 95.632-19.264 94.4972-21.6011 92.2277-23.1411 89.9582-24.6811 86.8376-25.4512 82.8659-25.4512L71.0319-25.4512ZM71.0319-31.3682 81.2043-31.3682C84.7166-31.3682 87.3982-32.172 89.2489-33.7795 91.0997-35.3871 92.0251-37.5553 92.0251-40.2842 92.0251-42.1214 91.6063-43.6547 90.7687-44.884 89.9311-46.1134 88.7086-47.032 87.101-47.6399 85.4934-48.2478 83.5278-48.5518 81.2043-48.5518L71.0319-48.5518ZM108.601 0 108.601-5.75488 138.146-48.4302 110.506-48.4302 110.506-54.5498 146.697-54.5498 146.697-48.9976 116.991-6.11963 148.237-6.11963 148.237 0ZM156.687 0 156.687-54.5498 163.982-54.5498 163.982-31.6519 193.81-31.6519 193.81-54.5498 201.024-54.5498 201.024 0 193.81 0 193.81-25.3296 163.982-25.3296 163.982 0Z" fill="#FFFFFF" transform="matrix(1 0 0 1 72.1655 124)"/></g></g><path d="M2623 1242.6C2623 1232.88 2630.88 1225 2640.6 1225L3219.4 1225C3229.12 1225 3237 1232.88 3237 1242.6L3237 1383.4C3237 1393.12 3229.12 1401 3219.4 1401L2640.6 1401C2630.88 1401 2623 1393.12 2623 1383.4Z" fill="url(#fill21)" fill-rule="evenodd"/><text fill="#FFFFFF" font-family="Aptos,Aptos_MSFontService,sans-serif" font-weight="400" font-size="83" transform="matrix(1 0 0 1 2826.17 1335)">DBZH</text><path d="M2344.16 1424.56 2625.81 1637.67" stroke="#125675" stroke-width="6.875" stroke-miterlimit="8" fill="none" fill-rule="evenodd"/><g filter="url(#fx6)" transform="translate(2604 1535)"><g><path d="M22 39.4751C22 29.7548 29.8798 21.875 39.6001 21.875L618.4 21.875C628.12 21.875 636 29.7548 636 39.4751L636 180.275C636 189.995 628.12 197.875 618.4 197.875L39.6001 197.875C29.8798 197.875 22 189.995 22 180.275Z" fill="#FF0000" fill-rule="evenodd"/></g></g><g clip-path="url(#clip22)" filter="url(#fx7)" transform="translate(2759 1543)"><g><path d="M19.9395 0 0.324219-54.5498 8.06494-54.5498 24.2759-7.70019 40.5679-54.5498 48.2681-54.5498 28.4502 0ZM55.4411 0 55.4411-54.5498 76.0696-54.5498C79.2307-54.5498 82.1014-54.05 84.6816-53.0503 87.2619-52.0506 89.322-50.4836 90.862-48.3491 92.4021-46.2147 93.1721-43.4453 93.1721-40.041 93.1721-36.5827 92.2062-33.6377 90.2744-31.2061 88.3426-28.7744 85.5124-27.1263 81.7839-26.2617 83.8373-25.9645 85.5259-25.3026 86.8498-24.2759 88.1737-23.2492 89.2747-21.8645 90.1528-20.1218 91.0309-18.3791 91.7942-16.2244 92.4426-13.6577L96.009 0 88.552 0 85.4314-12.5229C84.891-14.7655 84.2493-16.677 83.5063-18.2576 82.7633-19.8381 81.7704-21.0404 80.5276-21.8645 79.2847-22.6886 77.6231-23.1006 75.5427-23.1006L62.7361-23.1006 62.7361 0ZM62.7361-29.1797 75.1374-29.1797C77.1368-29.1797 78.947-29.5579 80.5681-30.3145 82.1892-31.071 83.4793-32.1652 84.4385-33.5972 85.3976-35.0291 85.8772-36.7583 85.8772-38.7847 85.8772-41.8377 84.9788-44.2153 83.1821-45.9175 81.3854-47.6196 78.7714-48.4707 75.3401-48.4707L62.7361-48.4707ZM98.293 0 118.719-54.5498 126.419-54.5498 146.561 0 139.023 0 133.835-15.2788 111.221-15.2788 105.791 0ZM113.207-21.3984 131.769-21.3984 122.528-47.2954ZM153.731 0 153.731-54.5498 172.09-54.5498C177.79-54.5498 182.654-53.4758 186.679-51.3279 190.705-49.1799 193.772-46.0661 195.879-41.9863 197.987-37.9066 199.04-33.0028 199.04-27.2749 199.04-21.52 197.98-16.6027 195.859-12.5229 193.738-8.4432 190.665-5.3361 186.639-3.20166 182.613-1.06722 177.763 0 172.09 0ZM161.026-6.11963 170.469-6.11963C175.251-6.11963 179.195-6.88289 182.303-8.40942 185.41-9.93595 187.726-12.273 189.253-15.4207 190.779-18.5683 191.543-22.5332 191.543-27.3154 191.543-32.0706 190.766-36.0085 189.212-39.1291 187.659-42.2497 185.322-44.5801 182.201-46.1201 179.081-47.6601 175.17-48.4302 170.469-48.4302L161.026-48.4302Z" fill="#FFFFFF" transform="matrix(1 0 0 1 72.4089 124)"/></g></g><path d="M2626 1567.6C2626 1557.88 2633.88 1550 2643.6 1550L3222.4 1550C3232.12 1550 3240 1557.88 3240 1567.6L3240 1708.4C3240 1718.12 3232.12 1726 3222.4 1726L2643.6 1726C2633.88 1726 2626 1718.12 2626 1708.4Z" fill="url(#fill23)" fill-rule="evenodd"/><text fill="#FFFFFF" font-family="Aptos,Aptos_MSFontService,sans-serif" font-weight="400" font-size="83" transform="matrix(1 0 0 1 2831.41 1660)">VRAD</text><path d="M831.5 1815.83C831.5 1787.48 854.483 1764.5 882.834 1764.5L1462.17 1764.5C1490.52 1764.5 1513.5 1787.48 1513.5 1815.83L1513.5 2021.17C1513.5 2049.52 1490.52 2072.5 1462.17 2072.5L882.834 2072.5C854.483 2072.5 831.5 2049.52 831.5 2021.17Z" stroke="#000000" stroke-width="4.58333" stroke-miterlimit="8" fill="url(#fill24)" fill-rule="evenodd"/><text font-family="Abadi,Abadi_MSFontService,sans-serif" font-weight="400" font-size="64" transform="matrix(1 0 0 1 878.846 1824)">Xarray.Datatree</text><text font-family="Arial,Arial_MSFontService,sans-serif" font-weight="400" font-size="64" transform="matrix(1 0 0 1 878.846 1901)">•</text><text font-family="Abadi,Abadi_MSFontService,sans-serif" font-weight="400" font-size="64" transform="matrix(1 0 0 1 981.971 1901)">Global attributes</text><text font-family="Arial,Arial_MSFontService,sans-serif" font-weight="400" font-size="64" transform="matrix(1 0 0 1 878.846 1978)">•</text><text font-family="Abadi,Abadi_MSFontService,sans-serif" font-weight="400" font-size="64" transform="matrix(1 0 0 1 981.971 1978)">Ancillary </text><text font-family="Abadi,Abadi_MSFontService,sans-serif" font-weight="400" font-size="64" transform="matrix(1 0 0 1 981.971 2055)">variables</text><rect x="2041" y="1119" width="30.0004" height="30.9999" fill="#FFFFFF"/><rect x="2041" y="1166" width="30.0004" height="30.9999" fill="#FFFFFF"/><rect x="2041" y="1213" width="30.0004" height="30.9999" fill="#FFFFFF"/><g filter="url(#fx8)" transform="translate(1702 1748)"><g><path d="M21.9999 73.3764C21.9999 44.933 45.0578 21.8751 73.5011 21.8751L590.499 21.8751C618.942 21.8751 642 44.933 642 73.3764L642 279.374C642 307.817 618.942 330.875 590.499 330.875L73.5011 330.875C45.0578 330.875 21.9999 307.817 21.9999 279.374Z" fill="#FF0000" fill-rule="evenodd"/></g></g><g clip-path="url(#clip25)" filter="url(#fx9)" transform="translate(1712 1768)"><g><path d="M37.3125 0 29.5 0 18.3125-18.6875 7.15625 0-0.5625 0 14.5937-23.4375 1.40625-43.6562 9.21875-43.6562 18.3125-28.2187 27.4062-43.6562 35.25-43.6562 22.0312-23.4375ZM68.1042-0.3125C66.3958 0.145833 64.9583 0.375 63.7917 0.375 60.1875 0.375 58.3542-1.33333 58.2917-4.75L58.1667-4.75C57.2292-3.27083 56.0625-1.98958 54.6667-0.90625 53.2708 0.177083 51.3854 0.71875 49.0104 0.71875 47.3437 0.71875 45.6875 0.322917 44.0417-0.46875 42.3958-1.26042 41.0625-2.39062 40.0417-3.85937 39.0208-5.32812 38.5104-6.98958 38.5104-8.84375 38.5104-10.7812 39.0521-12.401 40.1354-13.7031 41.2187-15.0052 42.6562-16.0104 44.4479-16.7187 46.2396-17.4271 48.1615-17.9531 50.2135-18.2969 52.2656-18.6406 54.9375-18.9792 58.2292-19.3125 58.1667-20.7083 57.7448-21.8542 56.9635-22.75 56.1823-23.6458 55.2396-24.2812 54.1354-24.6562 53.0312-25.0312 51.9687-25.2187 50.9479-25.2187 49.5729-25.2187 48.2708-24.9896 47.0417-24.5312 45.8125-24.0729 44.7396-23.5365 43.8229-22.9219 42.9062-22.3073 41.9271-21.5833 40.8854-20.75L40.8854-27.0625C44.8437-29.3333 48.5833-30.4687 52.1042-30.4687 54.4167-30.4687 56.4844-29.9948 58.3073-29.0469 60.1302-28.099 61.5573-26.75 62.5885-25 63.6198-23.25 64.1354-21.3542 64.1354-19.3125L64.1354-7.09375C64.1354-5.53125 64.7708-4.75 66.0417-4.75 66.7292-4.75 67.4167-4.89583 68.1042-5.1875ZM58.2292-14.7187 55.3542-14.2812C51.1458-13.7187 48.3437-13.0573 46.9479-12.2969 45.5521-11.5365 44.8542-10.4271 44.8542-8.96875 44.8542-7.67708 45.3958-6.58333 46.4792-5.6875 47.5625-4.79167 48.8125-4.34375 50.2292-4.34375 51.7917-4.34375 53.474-5.02604 55.276-6.39062 57.0781-7.75521 58.0625-10.5312 58.2292-14.7187ZM90.0521-23.875C88.6146-24.4375 87.5521-24.7187 86.8646-24.7187 84.5729-24.7187 82.625-23.651 81.0208-21.5156 79.4167-19.3802 78.6146-16.75 78.6146-13.625L78.6146 0 72.7083 0 72.7083-29.75 78.0833-29.75 78.5521-24.1875 78.6771-24.1875C80.0937-28.2083 82.8437-30.2187 86.9271-30.2187 88.0312-30.2187 89.0729-30.0833 90.0521-29.8125ZM112.396-23.875C110.958-24.4375 109.896-24.7187 109.208-24.7187 106.917-24.7187 104.969-23.651 103.365-21.5156 101.76-19.3802 100.958-16.75 100.958-13.625L100.958 0 95.0521 0 95.0521-29.75 100.427-29.75 100.896-24.1875 101.021-24.1875C102.437-28.2083 105.187-30.2187 109.271-30.2187 110.375-30.2187 111.417-30.0833 112.396-29.8125ZM144.302-0.3125C142.594 0.145833 141.156 0.375 139.99 0.375 136.385 0.375 134.552-1.33333 134.49-4.75L134.365-4.75C133.427-3.27083 132.26-1.98958 130.865-0.90625 129.469 0.177083 127.583 0.71875 125.208 0.71875 123.542 0.71875 121.885 0.322917 120.24-0.46875 118.594-1.26042 117.26-2.39062 116.24-3.85937 115.219-5.32812 114.708-6.98958 114.708-8.84375 114.708-10.7812 115.25-12.401 116.333-13.7031 117.417-15.0052 118.854-16.0104 120.646-16.7187 122.437-17.4271 124.359-17.9531 126.411-18.2969 128.464-18.6406 131.135-18.9792 134.427-19.3125 134.365-20.7083 133.943-21.8542 133.161-22.75 132.38-23.6458 131.438-24.2812 130.333-24.6562 129.229-25.0312 128.167-25.2187 127.146-25.2187 125.771-25.2187 124.469-24.9896 123.24-24.5312 122.01-24.0729 120.937-23.5365 120.021-22.9219 119.104-22.3073 118.125-21.5833 117.083-20.75L117.083-27.0625C121.042-29.3333 124.781-30.4687 128.302-30.4687 130.615-30.4687 132.682-29.9948 134.505-29.0469 136.328-28.099 137.755-26.75 138.786-25 139.818-23.25 140.333-21.3542 140.333-19.3125L140.333-7.09375C140.333-5.53125 140.969-4.75 142.24-4.75 142.927-4.75 143.615-4.89583 144.302-5.1875ZM134.427-14.7187 131.552-14.2812C127.344-13.7187 124.542-13.0573 123.146-12.2969 121.75-11.5365 121.052-10.4271 121.052-8.96875 121.052-7.67708 121.594-6.58333 122.677-5.6875 123.76-4.79167 125.01-4.34375 126.427-4.34375 127.99-4.34375 129.672-5.02604 131.474-6.39062 133.276-7.75521 134.26-10.5312 134.427-14.7187ZM173.812-29.75 160.562 5.9375C159.438 8.91667 158.052 11.1146 156.406 12.5312 154.76 13.9479 152.802 14.6562 150.531 14.6562 149.135 14.6562 147.594 14.375 145.906 13.8125L145.906 8.5625C147.427 9.16667 148.667 9.46875 149.625 9.46875 150.771 9.46875 151.76 9.09375 152.594 8.34375 153.427 7.59375 154.12 6.61458 154.672 5.40625 155.224 4.19792 155.865 2.5 156.594 0.3125L144.188-29.75 150.969-29.75 159.594-6.03125 159.75-6.03125 167.469-29.75ZM184.406-3.78125C184.406-2.71875 184.052-1.78125 183.344-0.96875 182.635-0.15625 181.812 0.25 180.875 0.25 179.958 0.25 179.156-0.125 178.469-0.875 177.781-1.625 177.438-2.55208 177.438-3.65625 177.438-4.71875 177.786-5.64583 178.484-6.4375 179.182-7.22917 180.01-7.625 180.969-7.625 181.531-7.625 182.089-7.46354 182.641-7.14062 183.193-6.81771 183.625-6.34375 183.938-5.71875 184.25-5.09375 184.406-4.44792 184.406-3.78125ZM230.333-22.8437C230.333-19.5312 229.76-16.3906 228.615-13.4219 227.469-10.4531 225.937-8.13542 224.021-6.46875 221.333-4.13542 218.708-2.47396 216.146-1.48437 213.583-0.494792 210.698 0 207.49 0L192.646 0 192.646-43.6562 210.771-43.6562C214.812-43.6562 218.312-42.7187 221.271-40.8437 224.229-38.9687 226.479-36.4323 228.021-33.2344 229.562-30.0365 230.333-26.5729 230.333-22.8437ZM223.427-22.5937C223.427-25.5104 222.833-28.1458 221.646-30.5 220.458-32.8542 218.828-34.6719 216.755-35.9531 214.682-37.2344 212.385-37.875 209.865-37.875L198.802-37.875 198.802-5.75 206.927-5.75C210.177-5.75 213.047-6.4375 215.536-7.8125 218.026-9.1875 219.964-11.1562 221.349-13.7187 222.734-16.2812 223.427-19.2396 223.427-22.5937ZM264.042-0.3125C262.333 0.145833 260.896 0.375 259.729 0.375 256.125 0.375 254.292-1.33333 254.229-4.75L254.104-4.75C253.167-3.27083 252-1.98958 250.604-0.90625 249.208 0.177083 247.323 0.71875 244.948 0.71875 243.281 0.71875 241.625 0.322917 239.979-0.46875 238.333-1.26042 237-2.39062 235.979-3.85937 234.958-5.32812 234.448-6.98958 234.448-8.84375 234.448-10.7812 234.99-12.401 236.073-13.7031 237.156-15.0052 238.594-16.0104 240.385-16.7187 242.177-17.4271 244.099-17.9531 246.151-18.2969 248.203-18.6406 250.875-18.9792 254.167-19.3125 254.104-20.7083 253.682-21.8542 252.901-22.75 252.12-23.6458 251.177-24.2812 250.073-24.6562 248.969-25.0312 247.906-25.2187 246.885-25.2187 245.51-25.2187 244.208-24.9896 242.979-24.5312 241.75-24.0729 240.677-23.5365 239.76-22.9219 238.844-22.3073 237.865-21.5833 236.823-20.75L236.823-27.0625C240.781-29.3333 244.521-30.4687 248.042-30.4687 250.354-30.4687 252.422-29.9948 254.245-29.0469 256.068-28.099 257.495-26.75 258.526-25 259.557-23.25 260.073-21.3542 260.073-19.3125L260.073-7.09375C260.073-5.53125 260.708-4.75 261.979-4.75 262.667-4.75 263.354-4.89583 264.042-5.1875ZM254.167-14.7187 251.292-14.2812C247.083-13.7187 244.281-13.0573 242.885-12.2969 241.49-11.5365 240.792-10.4271 240.792-8.96875 240.792-7.67708 241.333-6.58333 242.417-5.6875 243.5-4.79167 244.75-4.34375 246.167-4.34375 247.729-4.34375 249.411-5.02604 251.214-6.39062 253.016-7.75521 254-10.5312 254.167-14.7187ZM283.896-0.3125C281.896 0.375 279.979 0.71875 278.146 0.71875 272.667 0.71875 269.927-1.80208 269.927-6.84375L269.927-24.7812 264.958-24.7812 264.958-29.75 269.927-29.75 270.521-38.6562 275.833-38.6562 275.833-29.75 283.896-29.75 283.896-24.7812 275.833-24.7812 275.833-8.71875C275.833-5.96875 277.24-4.59375 280.052-4.59375 281.26-4.59375 282.542-4.9375 283.896-5.625ZM316.177-0.3125C314.469 0.145833 313.031 0.375 311.865 0.375 308.26 0.375 306.427-1.33333 306.365-4.75L306.24-4.75C305.302-3.27083 304.135-1.98958 302.74-0.90625 301.344 0.177083 299.458 0.71875 297.083 0.71875 295.417 0.71875 293.76 0.322917 292.115-0.46875 290.469-1.26042 289.135-2.39062 288.115-3.85937 287.094-5.32812 286.583-6.98958 286.583-8.84375 286.583-10.7812 287.125-12.401 288.208-13.7031 289.292-15.0052 290.729-16.0104 292.521-16.7187 294.312-17.4271 296.234-17.9531 298.286-18.2969 300.339-18.6406 303.01-18.9792 306.302-19.3125 306.24-20.7083 305.818-21.8542 305.036-22.75 304.255-23.6458 303.312-24.2812 302.208-24.6562 301.104-25.0312 300.042-25.2187 299.021-25.2187 297.646-25.2187 296.344-24.9896 295.115-24.5312 293.885-24.0729 292.812-23.5365 291.896-22.9219 290.979-22.3073 290-21.5833 288.958-20.75L288.958-27.0625C292.917-29.3333 296.656-30.4687 300.177-30.4687 302.49-30.4687 304.557-29.9948 306.38-29.0469 308.203-28.099 309.63-26.75 310.661-25 311.693-23.25 312.208-21.3542 312.208-19.3125L312.208-7.09375C312.208-5.53125 312.844-4.75 314.115-4.75 314.802-4.75 315.49-4.89583 316.177-5.1875ZM306.302-14.7187 303.427-14.2812C299.219-13.7187 296.417-13.0573 295.021-12.2969 293.625-11.5365 292.927-10.4271 292.927-8.96875 292.927-7.67708 293.469-6.58333 294.552-5.6875 295.635-4.79167 296.885-4.34375 298.302-4.34375 299.865-4.34375 301.547-5.02604 303.349-6.39062 305.151-7.75521 306.135-10.5312 306.302-14.7187ZM342.5-9.09375C342.5-7.36458 341.953-5.74479 340.859-4.23437 339.766-2.72396 338.229-1.52083 336.25-0.625 334.271 0.270833 331.979 0.71875 329.375 0.71875 327.625 0.71875 326.016 0.536458 324.547 0.171875 323.078-0.192708 321.896-0.588542 321-1.01562 320.104-1.44271 319.135-1.9375 318.094-2.5L318.094-9.03125C321.635-6.07292 325.458-4.59375 329.562-4.59375 331.312-4.59375 332.849-4.93229 334.172-5.60937 335.495-6.28646 336.156-7.27083 336.156-8.5625 336.156-9.58333 335.656-10.4219 334.656-11.0781 333.656-11.7344 331.812-12.3542 329.125-12.9375 326.292-13.5625 324.323-14.1354 323.219-14.6562 322.115-15.1771 321.135-15.7917 320.281-16.5 319.552-17.3333 319.005-18.0833 318.641-18.75 318.276-19.4167 318.094-20.3333 318.094-21.5 318.094-24.125 319.208-26.276 321.437-27.9531 323.667-29.6302 326.542-30.4687 330.062-30.4687 333.646-30.4687 337.125-29.5729 340.5-27.7812L340.5-21.5625C338.312-23.125 336.344-24.125 334.594-24.5625 332.844-25 331.375-25.2187 330.187-25.2187 328.583-25.2187 327.224-24.9115 326.109-24.2969 324.995-23.6823 324.437-22.8958 324.437-21.9375 324.437-20.9583 324.979-20.1927 326.062-19.6406 327.146-19.0885 328.719-18.5833 330.781-18.125 334.969-17.1875 337.969-16.0208 339.781-14.625 341.594-13.2292 342.5-11.3854 342.5-9.09375ZM375.167-14.9687 353.042-14.9687C353.187-12.5312 353.818-10.5677 354.932-9.07812 356.047-7.58854 357.339-6.53646 358.807-5.92187 360.276-5.30729 361.677-5 363.01-5 366.719-5 370.427-6.85417 374.135-10.5625L374.135-3.40625C372.427-2.26042 370.641-1.28646 368.776-0.484375 366.911 0.317708 364.646 0.71875 361.979 0.71875 358.896 0.71875 356.198-0.0104167 353.885-1.46875 351.573-2.92708 349.797-4.85938 348.557-7.26562 347.318-9.67187 346.698-12.2187 346.698-14.9062 346.698-17.8854 347.385-20.5521 348.76-22.9062 350.135-25.2604 351.979-27.1094 354.292-28.4531 356.604-29.7969 359.062-30.4687 361.667-30.4687 363.75-30.4687 365.703-30.0417 367.526-29.1875 369.349-28.3333 370.828-27.1875 371.964-25.75 373.099-24.3125 373.917-22.75 374.417-21.0625 374.917-19.375 375.167-17.3437 375.167-14.9687ZM368.26-19.7187C367.99-21.6354 367.214-23.0937 365.932-24.0937 364.651-25.0937 363.229-25.5937 361.667-25.5937 358.104-25.5937 355.479-23.6354 353.792-19.7187ZM396.187-0.3125C394.187 0.375 392.271 0.71875 390.437 0.71875 384.958 0.71875 382.219-1.80208 382.219-6.84375L382.219-24.7812 377.25-24.7812 377.25-29.75 382.219-29.75 382.812-38.6562 388.125-38.6562 388.125-29.75 396.187-29.75 396.187-24.7812 388.125-24.7812 388.125-8.71875C388.125-5.96875 389.531-4.59375 392.344-4.59375 393.552-4.59375 394.833-4.9375 396.187-5.625Z" fill="#FFFFFF" transform="matrix(1 0 0 1 60.2216 101)"/><path d="M3.40625-22.4375C3.40625-24.625 4.18229-26.4896 5.73437-28.0312 7.28646-29.5729 9.14583-30.3437 11.3125-30.3437 13.5-30.3437 15.3698-29.5729 16.9219-28.0312 18.474-26.4896 19.25-24.625 19.25-22.4375 19.25-20.25 18.474-18.3802 16.9219-16.8281 15.3698-15.276 13.5-14.5 11.3125-14.5 9.14583-14.5 7.28646-15.276 5.73437-16.8281 4.18229-18.3802 3.40625-20.25 3.40625-22.4375Z" fill="#FFFFFF" transform="matrix(1 0 0 1 100.326 178)"/><path d="M35.4062-3.40625C32.8854-1.92708 30.5573-0.869792 28.4219-0.234375 26.2865 0.401042 24.1042 0.71875 21.875 0.71875 18.1875 0.71875 14.8021-0.25 11.7187-2.1875 8.63542-4.125 6.22917-6.79167 4.5-10.1875 2.77083-13.5833 1.90625-17.3542 1.90625-21.5 1.90625-25.7917 2.79687-29.6823 4.57812-33.1719 6.35937-36.6615 8.84896-39.3958 12.0469-41.375 15.2448-43.3542 18.8021-44.3437 22.7187-44.3437 25.3854-44.3437 27.6979-43.974 29.6562-43.2344 31.6146-42.4948 33.5312-41.5625 35.4062-40.4375L35.4062-33.2187C33.6771-34.7396 31.8229-36.0365 29.8437-37.1094 27.8646-38.1823 25.5521-38.7187 22.9062-38.7187 20.0729-38.7187 17.5469-37.9062 15.3281-36.2812 13.1094-34.6562 11.3854-32.5208 10.1562-29.875 8.92708-27.2292 8.3125-24.4375 8.3125-21.5 8.3125-18.625 8.92187-15.9115 10.1406-13.3594 11.3594-10.8073 13.0365-8.79687 15.1719-7.32812 17.3073-5.85937 19.6146-5.125 22.0937-5.125 24.9062-5.125 27.375-5.68229 29.5-6.79687 31.625-7.91146 33.5937-9.1875 35.4062-10.625ZM70.3333-14.9062C70.3333-12.0729 69.6406-9.44792 68.2552-7.03125 66.8698-4.61458 64.9896-2.71875 62.6146-1.34375 60.2396 0.03125 57.7292 0.71875 55.0833 0.71875 52.1667 0.71875 49.5104 0.0364583 47.1146-1.32812 44.7187-2.69271 42.849-4.56771 41.5052-6.95312 40.1615-9.33854 39.4896-11.9896 39.4896-14.9062 39.4896-17.8229 40.1771-20.474 41.5521-22.8594 42.9271-25.2448 44.7917-27.1094 47.1458-28.4531 49.5-29.7969 52.1042-30.4687 54.9583-30.4687 57.7708-30.4687 60.3489-29.8021 62.6927-28.4687 65.0365-27.1354 66.8958-25.2552 68.2708-22.8281 69.6458-20.401 70.3333-17.7604 70.3333-14.9062ZM63.9896-14.9062C63.9896-16.6979 63.6094-18.3906 62.849-19.9844 62.0885-21.5781 61.0052-22.849 59.599-23.7969 58.1927-24.7448 56.6458-25.2187 54.9583-25.2187 52.4375-25.2187 50.2812-24.2187 48.4896-22.2187 46.6979-20.2187 45.8021-17.7604 45.8021-14.8437 45.8021-11.9896 46.6875-9.55729 48.4583-7.54687 50.2292-5.53646 52.3125-4.53125 54.7083-4.53125 57.3125-4.53125 59.5104-5.53125 61.3021-7.53125 63.0937-9.53125 63.9896-11.9896 63.9896-14.9062ZM105.854-14.9062C105.854-12.0729 105.161-9.44792 103.776-7.03125 102.391-4.61458 100.51-2.71875 98.1354-1.34375 95.7604 0.03125 93.25 0.71875 90.6042 0.71875 87.6875 0.71875 85.0312 0.0364583 82.6354-1.32812 80.2396-2.69271 78.3698-4.56771 77.026-6.95312 75.6823-9.33854 75.0104-11.9896 75.0104-14.9062 75.0104-17.8229 75.6979-20.474 77.0729-22.8594 78.4479-25.2448 80.3125-27.1094 82.6667-28.4531 85.0208-29.7969 87.625-30.4687 90.4792-30.4687 93.2917-30.4687 95.8698-29.8021 98.2135-28.4687 100.557-27.1354 102.417-25.2552 103.792-22.8281 105.167-20.401 105.854-17.7604 105.854-14.9062ZM99.5104-14.9062C99.5104-16.6979 99.1302-18.3906 98.3698-19.9844 97.6094-21.5781 96.526-22.849 95.1198-23.7969 93.7135-24.7448 92.1667-25.2187 90.4792-25.2187 87.9583-25.2187 85.8021-24.2187 84.0104-22.2187 82.2187-20.2187 81.3229-17.7604 81.3229-14.8437 81.3229-11.9896 82.2083-9.55729 83.9792-7.54687 85.75-5.53646 87.8333-4.53125 90.2292-4.53125 92.8333-4.53125 95.0312-5.53125 96.8229-7.53125 98.6146-9.53125 99.5104-11.9896 99.5104-14.9062ZM130.156-23.875C128.719-24.4375 127.656-24.7187 126.969-24.7187 124.677-24.7187 122.729-23.651 121.125-21.5156 119.521-19.3802 118.719-16.75 118.719-13.625L118.719 0 112.812 0 112.812-29.75 118.188-29.75 118.656-24.1875 118.781-24.1875C120.198-28.2083 122.948-30.2187 127.031-30.2187 128.135-30.2187 129.177-30.0833 130.156-29.8125ZM161.844 0 156.406 0 156.031-5 155.906-5C153.448-1.1875 150.229 0.71875 146.25 0.71875 143.792 0.71875 141.562 0.0572916 139.562-1.26562 137.562-2.58854 135.99-4.42187 134.844-6.76562 133.698-9.10937 133.125-11.6979 133.125-14.5312 133.125-17.5521 133.771-20.276 135.062-22.7031 136.354-25.1302 138.068-27.0312 140.203-28.4062 142.339-29.7812 144.646-30.4687 147.125-30.4687 148.938-30.4687 150.547-30.1458 151.953-29.5 153.359-28.8542 154.698-28.0417 155.969-27.0625L155.969-43.6562 161.844-43.6562ZM155.969-15.375 155.969-21C153.24-23.6458 150.573-24.9687 147.969-24.9687 145.51-24.9687 143.479-24.0208 141.875-22.125 140.271-20.2292 139.469-17.8229 139.469-14.9062 139.469-12.0104 140.245-9.60417 141.797-7.6875 143.349-5.77083 145.26-4.8125 147.531-4.8125 148.823-4.8125 150.125-5.19271 151.438-5.95312 152.75-6.71354 153.833-7.88542 154.688-9.46875 155.542-11.0521 155.969-13.0208 155.969-15.375ZM177.656-39.6875C177.656-38.5 177.349-37.5417 176.734-36.8125 176.12-36.0833 175.344-35.7187 174.406-35.7187 173.385-35.7187 172.583-36.1042 172-36.875 171.417-37.6458 171.125-38.5833 171.125-39.6875 171.125-40.8125 171.411-41.7448 171.984-42.4844 172.557-43.224 173.344-43.5937 174.344-43.5937 175.323-43.5937 176.12-43.2448 176.734-42.5469 177.349-41.849 177.656-40.8958 177.656-39.6875ZM177.344 0 171.469 0 171.469-29.75 177.344-29.75ZM212.062 0 206.188 0 206.188-18.3125C206.188-20.2292 205.745-21.8177 204.859-23.0781 203.974-24.3385 202.562-24.9687 200.625-24.9687 198.875-24.9687 197.359-24.4323 196.078-23.3594 194.797-22.2865 193.839-20.9219 193.203-19.2656 192.568-17.6094 192.25-15.9062 192.25-14.1562L192.25 0 186.344 0 186.344-29.75 191.719-29.75 192.156-24.7812 192.312-24.7812C192.917-25.8021 193.552-26.6979 194.219-27.4687 194.885-28.2396 195.849-28.9323 197.109-29.5469 198.37-30.1615 199.927-30.4687 201.781-30.4687 205.094-30.4687 207.635-29.4531 209.406-27.4219 211.177-25.3906 212.062-23.0312 212.062-20.3437ZM247.427-0.3125C245.719 0.145833 244.281 0.375 243.115 0.375 239.51 0.375 237.677-1.33333 237.615-4.75L237.49-4.75C236.552-3.27083 235.385-1.98958 233.99-0.90625 232.594 0.177083 230.708 0.71875 228.333 0.71875 226.667 0.71875 225.01 0.322917 223.365-0.46875 221.719-1.26042 220.385-2.39062 219.365-3.85937 218.344-5.32812 217.833-6.98958 217.833-8.84375 217.833-10.7812 218.375-12.401 219.458-13.7031 220.542-15.0052 221.979-16.0104 223.771-16.7187 225.562-17.4271 227.484-17.9531 229.536-18.2969 231.589-18.6406 234.26-18.9792 237.552-19.3125 237.49-20.7083 237.068-21.8542 236.286-22.75 235.505-23.6458 234.562-24.2812 233.458-24.6562 232.354-25.0312 231.292-25.2187 230.271-25.2187 228.896-25.2187 227.594-24.9896 226.365-24.5312 225.135-24.0729 224.062-23.5365 223.146-22.9219 222.229-22.3073 221.25-21.5833 220.208-20.75L220.208-27.0625C224.167-29.3333 227.906-30.4687 231.427-30.4687 233.74-30.4687 235.807-29.9948 237.63-29.0469 239.453-28.099 240.88-26.75 241.911-25 242.943-23.25 243.458-21.3542 243.458-19.3125L243.458-7.09375C243.458-5.53125 244.094-4.75 245.365-4.75 246.052-4.75 246.74-4.89583 247.427-5.1875ZM237.552-14.7187 234.677-14.2812C230.469-13.7187 227.667-13.0573 226.271-12.2969 224.875-11.5365 224.177-10.4271 224.177-8.96875 224.177-7.67708 224.719-6.58333 225.802-5.6875 226.885-4.79167 228.135-4.34375 229.552-4.34375 231.115-4.34375 232.797-5.02604 234.599-6.39062 236.401-7.75521 237.385-10.5312 237.552-14.7187ZM267.281-0.3125C265.281 0.375 263.365 0.71875 261.531 0.71875 256.052 0.71875 253.312-1.80208 253.312-6.84375L253.312-24.7812 248.344-24.7812 248.344-29.75 253.312-29.75 253.906-38.6562 259.219-38.6562 259.219-29.75 267.281-29.75 267.281-24.7812 259.219-24.7812 259.219-8.71875C259.219-5.96875 260.625-4.59375 263.438-4.59375 264.646-4.59375 265.927-4.9375 267.281-5.625ZM298.969-14.9687 276.844-14.9687C276.99-12.5312 277.62-10.5677 278.734-9.07812 279.849-7.58854 281.141-6.53646 282.609-5.92187 284.078-5.30729 285.479-5 286.812-5 290.521-5 294.229-6.85417 297.938-10.5625L297.938-3.40625C296.229-2.26042 294.443-1.28646 292.578-0.484375 290.714 0.317708 288.448 0.71875 285.781 0.71875 282.698 0.71875 280-0.0104167 277.688-1.46875 275.375-2.92708 273.599-4.85938 272.359-7.26562 271.12-9.67187 270.5-12.2187 270.5-14.9062 270.5-17.8854 271.188-20.5521 272.562-22.9062 273.938-25.2604 275.781-27.1094 278.094-28.4531 280.406-29.7969 282.865-30.4687 285.469-30.4687 287.552-30.4687 289.505-30.0417 291.328-29.1875 293.151-28.3333 294.63-27.1875 295.766-25.75 296.901-24.3125 297.719-22.75 298.219-21.0625 298.719-19.375 298.969-17.3437 298.969-14.9687ZM292.062-19.7187C291.792-21.6354 291.016-23.0937 289.734-24.0937 288.453-25.0937 287.031-25.5937 285.469-25.5937 281.906-25.5937 279.281-23.6354 277.594-19.7187ZM326.458-9.09375C326.458-7.36458 325.911-5.74479 324.818-4.23437 323.724-2.72396 322.188-1.52083 320.208-0.625 318.229 0.270833 315.938 0.71875 313.333 0.71875 311.583 0.71875 309.974 0.536458 308.505 0.171875 307.036-0.192708 305.854-0.588542 304.958-1.01562 304.062-1.44271 303.094-1.9375 302.052-2.5L302.052-9.03125C305.594-6.07292 309.417-4.59375 313.521-4.59375 315.271-4.59375 316.807-4.93229 318.13-5.60937 319.453-6.28646 320.115-7.27083 320.115-8.5625 320.115-9.58333 319.615-10.4219 318.615-11.0781 317.615-11.7344 315.771-12.3542 313.083-12.9375 310.25-13.5625 308.281-14.1354 307.177-14.6562 306.073-15.1771 305.094-15.7917 304.24-16.5 303.51-17.3333 302.964-18.0833 302.599-18.75 302.234-19.4167 302.052-20.3333 302.052-21.5 302.052-24.125 303.167-26.276 305.396-27.9531 307.625-29.6302 310.5-30.4687 314.021-30.4687 317.604-30.4687 321.083-29.5729 324.458-27.7812L324.458-21.5625C322.271-23.125 320.302-24.125 318.552-24.5625 316.802-25 315.333-25.2187 314.146-25.2187 312.542-25.2187 311.182-24.9115 310.068-24.2969 308.953-23.6823 308.396-22.8958 308.396-21.9375 308.396-20.9583 308.938-20.1927 310.021-19.6406 311.104-19.0885 312.677-18.5833 314.74-18.125 318.927-17.1875 321.927-16.0208 323.74-14.625 325.552-13.2292 326.458-11.3854 326.458-9.09375Z" fill="#FFFFFF" transform="matrix(1 0 0 1 203.451 178)"/><path d="M3.40625-22.4375C3.40625-24.625 4.18229-26.4896 5.73437-28.0312 7.28646-29.5729 9.14583-30.3437 11.3125-30.3437 13.5-30.3437 15.3698-29.5729 16.9219-28.0312 18.474-26.4896 19.25-24.625 19.25-22.4375 19.25-20.25 18.474-18.3802 16.9219-16.8281 15.3698-15.276 13.5-14.5 11.3125-14.5 9.14583-14.5 7.28646-15.276 5.73437-16.8281 4.18229-18.3802 3.40625-20.25 3.40625-22.4375Z" fill="#FFFFFF" transform="matrix(1 0 0 1 100.326 255)"/><path d="M41.8437-22.8437C41.8437-19.5312 41.2708-16.3906 40.125-13.4219 38.9792-10.4531 37.4479-8.13542 35.5312-6.46875 32.8437-4.13542 30.2187-2.47396 27.6562-1.48437 25.0937-0.494792 22.2083 0 19 0L4.15625 0 4.15625-43.6562 22.2812-43.6562C26.3229-43.6562 29.8229-42.7187 32.7812-40.8437 35.7396-38.9687 37.9896-36.4323 39.5312-33.2344 41.0729-30.0365 41.8437-26.5729 41.8437-22.8437ZM34.9375-22.5937C34.9375-25.5104 34.3437-28.1458 33.1562-30.5 31.9687-32.8542 30.3385-34.6719 28.2656-35.9531 26.1927-37.2344 23.8958-37.875 21.375-37.875L10.3125-37.875 10.3125-5.75 18.4375-5.75C21.6875-5.75 24.5573-6.4375 27.0469-7.8125 29.5365-9.1875 31.474-11.1562 32.8594-13.7187 34.2448-16.2812 34.9375-19.2396 34.9375-22.5937ZM55.0521-39.6875C55.0521-38.5 54.7448-37.5417 54.1302-36.8125 53.5156-36.0833 52.7396-35.7187 51.8021-35.7187 50.7812-35.7187 49.9792-36.1042 49.3958-36.875 48.8125-37.6458 48.5208-38.5833 48.5208-39.6875 48.5208-40.8125 48.8073-41.7448 49.3802-42.4844 49.9531-43.224 50.7396-43.5937 51.7396-43.5937 52.7187-43.5937 53.5156-43.2448 54.1302-42.5469 54.7448-41.849 55.0521-40.8958 55.0521-39.6875ZM54.7396 0 48.8646 0 48.8646-29.75 54.7396-29.75ZM105.333 0 99.4583 0 99.4583-18.5C99.4583-20.5833 99.0365-22.1823 98.1927-23.2969 97.349-24.4115 96.1875-24.9687 94.7083-24.9687 92.6667-24.9687 90.9635-23.9375 89.599-21.875 88.2344-19.8125 87.5521-17.2187 87.5521-14.0937L87.5521 0 81.6771 0 81.6771-18.5C81.6771-20.0208 81.3594-21.4792 80.724-22.875 80.0885-24.2708 78.8229-24.9687 76.9271-24.9687 74.8646-24.9687 73.1562-23.9271 71.8021-21.8437 70.4479-19.7604 69.7708-17.0625 69.7708-13.75L69.7708 0 63.8646 0 63.8646-29.75 69.3021-29.75 69.7708-25.2812C70.8542-26.8437 72.0156-28.099 73.2552-29.0469 74.4948-29.9948 76.2917-30.4687 78.6458-30.4687 82.7708-30.4687 85.5521-28.3958 86.9896-24.25 87.6979-25.75 88.5365-26.9375 89.5052-27.8125 90.474-28.6875 91.5208-29.349 92.6458-29.7969 93.7708-30.2448 94.9792-30.4687 96.2708-30.4687 98.9792-30.4687 101.167-29.5365 102.833-27.6719 104.5-25.8073 105.333-23.3229 105.333-20.2187ZM140.271-14.9687 118.146-14.9687C118.292-12.5312 118.922-10.5677 120.036-9.07812 121.151-7.58854 122.443-6.53646 123.911-5.92187 125.38-5.30729 126.781-5 128.115-5 131.823-5 135.531-6.85417 139.24-10.5625L139.24-3.40625C137.531-2.26042 135.745-1.28646 133.88-0.484375 132.016 0.317708 129.75 0.71875 127.083 0.71875 124 0.71875 121.302-0.0104167 118.99-1.46875 116.677-2.92708 114.901-4.85938 113.661-7.26562 112.422-9.67187 111.802-12.2187 111.802-14.9062 111.802-17.8854 112.49-20.5521 113.865-22.9062 115.24-25.2604 117.083-27.1094 119.396-28.4531 121.708-29.7969 124.167-30.4687 126.771-30.4687 128.854-30.4687 130.807-30.0417 132.63-29.1875 134.453-28.3333 135.932-27.1875 137.068-25.75 138.203-24.3125 139.021-22.75 139.521-21.0625 140.021-19.375 140.271-17.3437 140.271-14.9687ZM133.365-19.7187C133.094-21.6354 132.318-23.0937 131.036-24.0937 129.755-25.0937 128.333-25.5937 126.771-25.5937 123.208-25.5937 120.583-23.6354 118.896-19.7187ZM171.385 0 165.51 0 165.51-18.3125C165.51-20.2292 165.068-21.8177 164.182-23.0781 163.297-24.3385 161.885-24.9687 159.948-24.9687 158.198-24.9687 156.682-24.4323 155.401-23.3594 154.12-22.2865 153.161-20.9219 152.526-19.2656 151.891-17.6094 151.573-15.9062 151.573-14.1562L151.573 0 145.667 0 145.667-29.75 151.042-29.75 151.479-24.7812 151.635-24.7812C152.24-25.8021 152.875-26.6979 153.542-27.4687 154.208-28.2396 155.172-28.9323 156.432-29.5469 157.693-30.1615 159.25-30.4687 161.104-30.4687 164.417-30.4687 166.958-29.4531 168.729-27.4219 170.5-25.3906 171.385-23.0312 171.385-20.3437ZM201.562-9.09375C201.562-7.36458 201.016-5.74479 199.922-4.23437 198.828-2.72396 197.292-1.52083 195.312-0.625 193.333 0.270833 191.042 0.71875 188.437 0.71875 186.687 0.71875 185.078 0.536458 183.609 0.171875 182.141-0.192708 180.958-0.588542 180.062-1.01562 179.167-1.44271 178.198-1.9375 177.156-2.5L177.156-9.03125C180.698-6.07292 184.521-4.59375 188.625-4.59375 190.375-4.59375 191.911-4.93229 193.234-5.60937 194.557-6.28646 195.219-7.27083 195.219-8.5625 195.219-9.58333 194.719-10.4219 193.719-11.0781 192.719-11.7344 190.875-12.3542 188.187-12.9375 185.354-13.5625 183.385-14.1354 182.281-14.6562 181.177-15.1771 180.198-15.7917 179.344-16.5 178.615-17.3333 178.068-18.0833 177.703-18.75 177.339-19.4167 177.156-20.3333 177.156-21.5 177.156-24.125 178.271-26.276 180.5-27.9531 182.729-29.6302 185.604-30.4687 189.125-30.4687 192.708-30.4687 196.187-29.5729 199.562-27.7812L199.562-21.5625C197.375-23.125 195.406-24.125 193.656-24.5625 191.906-25 190.437-25.2187 189.25-25.2187 187.646-25.2187 186.286-24.9115 185.172-24.2969 184.057-23.6823 183.5-22.8958 183.5-21.9375 183.5-20.9583 184.042-20.1927 185.125-19.6406 186.208-19.0885 187.781-18.5833 189.844-18.125 194.031-17.1875 197.031-16.0208 198.844-14.625 200.656-13.2292 201.562-11.3854 201.562-9.09375ZM214.323-39.6875C214.323-38.5 214.016-37.5417 213.401-36.8125 212.786-36.0833 212.01-35.7187 211.073-35.7187 210.052-35.7187 209.25-36.1042 208.667-36.875 208.083-37.6458 207.792-38.5833 207.792-39.6875 207.792-40.8125 208.078-41.7448 208.651-42.4844 209.224-43.224 210.01-43.5937 211.01-43.5937 211.99-43.5937 212.786-43.2448 213.401-42.5469 214.016-41.849 214.323-40.8958 214.323-39.6875ZM214.01 0 208.135 0 208.135-29.75 214.01-29.75ZM251.948-14.9062C251.948-12.0729 251.255-9.44792 249.87-7.03125 248.484-4.61458 246.604-2.71875 244.229-1.34375 241.854 0.03125 239.344 0.71875 236.698 0.71875 233.781 0.71875 231.125 0.0364583 228.729-1.32812 226.333-2.69271 224.464-4.56771 223.12-6.95312 221.776-9.33854 221.104-11.9896 221.104-14.9062 221.104-17.8229 221.792-20.474 223.167-22.8594 224.542-25.2448 226.406-27.1094 228.76-28.4531 231.115-29.7969 233.719-30.4687 236.573-30.4687 239.385-30.4687 241.964-29.8021 244.307-28.4687 246.651-27.1354 248.51-25.2552 249.885-22.8281 251.26-20.401 251.948-17.7604 251.948-14.9062ZM245.604-14.9062C245.604-16.6979 245.224-18.3906 244.464-19.9844 243.703-21.5781 242.62-22.849 241.214-23.7969 239.807-24.7448 238.26-25.2187 236.573-25.2187 234.052-25.2187 231.896-24.2187 230.104-22.2187 228.312-20.2187 227.417-17.7604 227.417-14.8437 227.417-11.9896 228.302-9.55729 230.073-7.54687 231.844-5.53646 233.927-4.53125 236.323-4.53125 238.927-4.53125 241.125-5.53125 242.917-7.53125 244.708-9.53125 245.604-11.9896 245.604-14.9062ZM284.25 0 278.375 0 278.375-18.3125C278.375-20.2292 277.932-21.8177 277.047-23.0781 276.161-24.3385 274.75-24.9687 272.812-24.9687 271.062-24.9687 269.547-24.4323 268.266-23.3594 266.984-22.2865 266.026-20.9219 265.391-19.2656 264.755-17.6094 264.437-15.9062 264.437-14.1562L264.437 0 258.531 0 258.531-29.75 263.906-29.75 264.344-24.7812 264.5-24.7812C265.104-25.8021 265.74-26.6979 266.406-27.4687 267.073-28.2396 268.036-28.9323 269.297-29.5469 270.557-30.1615 272.115-30.4687 273.969-30.4687 277.281-30.4687 279.823-29.4531 281.594-27.4219 283.365-25.3906 284.25-23.0312 284.25-20.3437ZM314.427-9.09375C314.427-7.36458 313.88-5.74479 312.786-4.23437 311.693-2.72396 310.156-1.52083 308.177-0.625 306.198 0.270833 303.906 0.71875 301.302 0.71875 299.552 0.71875 297.943 0.536458 296.474 0.171875 295.005-0.192708 293.823-0.588542 292.927-1.01562 292.031-1.44271 291.062-1.9375 290.021-2.5L290.021-9.03125C293.562-6.07292 297.385-4.59375 301.49-4.59375 303.24-4.59375 304.776-4.93229 306.099-5.60937 307.422-6.28646 308.083-7.27083 308.083-8.5625 308.083-9.58333 307.583-10.4219 306.583-11.0781 305.583-11.7344 303.74-12.3542 301.052-12.9375 298.219-13.5625 296.25-14.1354 295.146-14.6562 294.042-15.1771 293.062-15.7917 292.208-16.5 291.479-17.3333 290.932-18.0833 290.568-18.75 290.203-19.4167 290.021-20.3333 290.021-21.5 290.021-24.125 291.135-26.276 293.365-27.9531 295.594-29.6302 298.469-30.4687 301.99-30.4687 305.573-30.4687 309.052-29.5729 312.427-27.7812L312.427-21.5625C310.24-23.125 308.271-24.125 306.521-24.5625 304.771-25 303.302-25.2187 302.115-25.2187 300.51-25.2187 299.151-24.9115 298.036-24.2969 296.922-23.6823 296.365-22.8958 296.365-21.9375 296.365-20.9583 296.906-20.1927 297.99-19.6406 299.073-19.0885 300.646-18.5833 302.708-18.125 306.896-17.1875 309.896-16.0208 311.708-14.625 313.521-13.2292 314.427-11.3854 314.427-9.09375Z" fill="#FFFFFF" transform="matrix(1 0 0 1 203.451 255)"/></g></g><path d="M1724 1814.5C1724 1786.06 1747.06 1763 1775.5 1763L2292.5 1763C2320.94 1763 2344 1786.06 2344 1814.5L2344 2020.5C2344 2048.94 2320.94 2072 2292.5 2072L1775.5 2072C1747.06 2072 1724 2048.94 1724 2020.5Z" fill="url(#fill26)" fill-rule="evenodd"/><text fill="#FFFFFF" font-family="Abadi,Abadi_MSFontService,sans-serif" font-weight="400" font-size="64" transform="matrix(1 0 0 1 1772.22 1862)">Xarray.Dataset</text><text fill="#FFFFFF" font-family="Arial,Arial_MSFontService,sans-serif" font-weight="400" font-size="64" transform="matrix(1 0 0 1 1812.33 1939)">•</text><text fill="#FFFFFF" font-family="Abadi,Abadi_MSFontService,sans-serif" font-weight="400" font-size="64" transform="matrix(1 0 0 1 1915.45 1939)">Coordinates</text><text fill="#FFFFFF" font-family="Arial,Arial_MSFontService,sans-serif" font-weight="400" font-size="64" transform="matrix(1 0 0 1 1812.33 2016)">•</text><text fill="#FFFFFF" font-family="Abadi,Abadi_MSFontService,sans-serif" font-weight="400" font-size="64" transform="matrix(1 0 0 1 1915.45 2016)">Dimensions</text><g filter="url(#fx10)" transform="translate(2601 1748)"><g><path d="M22.0002 73.3764C22.0002 44.933 45.0581 21.8751 73.5014 21.8751L590.499 21.8751C618.942 21.8751 642 44.933 642 73.3764L642 279.374C642 307.817 618.942 330.875 590.499 330.875L73.5014 330.875C45.0581 330.875 22.0002 307.817 22.0002 279.374Z" fill="#FF0000" fill-rule="evenodd"/></g></g><g clip-path="url(#clip27)" filter="url(#fx11)" transform="translate(2610 1768)"><g><path d="M37.3125 0 29.5 0 18.3125-18.6875 7.15625 0-0.5625 0 14.5937-23.4375 1.40625-43.6562 9.21875-43.6562 18.3125-28.2187 27.4062-43.6562 35.25-43.6562 22.0312-23.4375ZM68.1042-0.3125C66.3958 0.145833 64.9583 0.375 63.7917 0.375 60.1875 0.375 58.3542-1.33333 58.2917-4.75L58.1667-4.75C57.2292-3.27083 56.0625-1.98958 54.6667-0.90625 53.2708 0.177083 51.3854 0.71875 49.0104 0.71875 47.3437 0.71875 45.6875 0.322917 44.0417-0.46875 42.3958-1.26042 41.0625-2.39062 40.0417-3.85937 39.0208-5.32812 38.5104-6.98958 38.5104-8.84375 38.5104-10.7812 39.0521-12.401 40.1354-13.7031 41.2187-15.0052 42.6562-16.0104 44.4479-16.7187 46.2396-17.4271 48.1615-17.9531 50.2135-18.2969 52.2656-18.6406 54.9375-18.9792 58.2292-19.3125 58.1667-20.7083 57.7448-21.8542 56.9635-22.75 56.1823-23.6458 55.2396-24.2812 54.1354-24.6562 53.0312-25.0312 51.9687-25.2187 50.9479-25.2187 49.5729-25.2187 48.2708-24.9896 47.0417-24.5312 45.8125-24.0729 44.7396-23.5365 43.8229-22.9219 42.9062-22.3073 41.9271-21.5833 40.8854-20.75L40.8854-27.0625C44.8437-29.3333 48.5833-30.4687 52.1042-30.4687 54.4167-30.4687 56.4844-29.9948 58.3073-29.0469 60.1302-28.099 61.5573-26.75 62.5885-25 63.6198-23.25 64.1354-21.3542 64.1354-19.3125L64.1354-7.09375C64.1354-5.53125 64.7708-4.75 66.0417-4.75 66.7292-4.75 67.4167-4.89583 68.1042-5.1875ZM58.2292-14.7187 55.3542-14.2812C51.1458-13.7187 48.3437-13.0573 46.9479-12.2969 45.5521-11.5365 44.8542-10.4271 44.8542-8.96875 44.8542-7.67708 45.3958-6.58333 46.4792-5.6875 47.5625-4.79167 48.8125-4.34375 50.2292-4.34375 51.7917-4.34375 53.474-5.02604 55.276-6.39062 57.0781-7.75521 58.0625-10.5312 58.2292-14.7187ZM90.0521-23.875C88.6146-24.4375 87.5521-24.7187 86.8646-24.7187 84.5729-24.7187 82.625-23.651 81.0208-21.5156 79.4167-19.3802 78.6146-16.75 78.6146-13.625L78.6146 0 72.7083 0 72.7083-29.75 78.0833-29.75 78.5521-24.1875 78.6771-24.1875C80.0937-28.2083 82.8437-30.2187 86.9271-30.2187 88.0312-30.2187 89.0729-30.0833 90.0521-29.8125ZM112.396-23.875C110.958-24.4375 109.896-24.7187 109.208-24.7187 106.917-24.7187 104.969-23.651 103.365-21.5156 101.76-19.3802 100.958-16.75 100.958-13.625L100.958 0 95.0521 0 95.0521-29.75 100.427-29.75 100.896-24.1875 101.021-24.1875C102.437-28.2083 105.187-30.2187 109.271-30.2187 110.375-30.2187 111.417-30.0833 112.396-29.8125ZM144.302-0.3125C142.594 0.145833 141.156 0.375 139.99 0.375 136.385 0.375 134.552-1.33333 134.49-4.75L134.365-4.75C133.427-3.27083 132.26-1.98958 130.865-0.90625 129.469 0.177083 127.583 0.71875 125.208 0.71875 123.542 0.71875 121.885 0.322917 120.24-0.46875 118.594-1.26042 117.26-2.39062 116.24-3.85937 115.219-5.32812 114.708-6.98958 114.708-8.84375 114.708-10.7812 115.25-12.401 116.333-13.7031 117.417-15.0052 118.854-16.0104 120.646-16.7187 122.437-17.4271 124.359-17.9531 126.411-18.2969 128.464-18.6406 131.135-18.9792 134.427-19.3125 134.365-20.7083 133.943-21.8542 133.161-22.75 132.38-23.6458 131.438-24.2812 130.333-24.6562 129.229-25.0312 128.167-25.2187 127.146-25.2187 125.771-25.2187 124.469-24.9896 123.24-24.5312 122.01-24.0729 120.937-23.5365 120.021-22.9219 119.104-22.3073 118.125-21.5833 117.083-20.75L117.083-27.0625C121.042-29.3333 124.781-30.4687 128.302-30.4687 130.615-30.4687 132.682-29.9948 134.505-29.0469 136.328-28.099 137.755-26.75 138.786-25 139.818-23.25 140.333-21.3542 140.333-19.3125L140.333-7.09375C140.333-5.53125 140.969-4.75 142.24-4.75 142.927-4.75 143.615-4.89583 144.302-5.1875ZM134.427-14.7187 131.552-14.2812C127.344-13.7187 124.542-13.0573 123.146-12.2969 121.75-11.5365 121.052-10.4271 121.052-8.96875 121.052-7.67708 121.594-6.58333 122.677-5.6875 123.76-4.79167 125.01-4.34375 126.427-4.34375 127.99-4.34375 129.672-5.02604 131.474-6.39062 133.276-7.75521 134.26-10.5312 134.427-14.7187ZM173.812-29.75 160.562 5.9375C159.438 8.91667 158.052 11.1146 156.406 12.5312 154.76 13.9479 152.802 14.6562 150.531 14.6562 149.135 14.6562 147.594 14.375 145.906 13.8125L145.906 8.5625C147.427 9.16667 148.667 9.46875 149.625 9.46875 150.771 9.46875 151.76 9.09375 152.594 8.34375 153.427 7.59375 154.12 6.61458 154.672 5.40625 155.224 4.19792 155.865 2.5 156.594 0.3125L144.188-29.75 150.969-29.75 159.594-6.03125 159.75-6.03125 167.469-29.75ZM184.406-3.78125C184.406-2.71875 184.052-1.78125 183.344-0.96875 182.635-0.15625 181.812 0.25 180.875 0.25 179.958 0.25 179.156-0.125 178.469-0.875 177.781-1.625 177.438-2.55208 177.438-3.65625 177.438-4.71875 177.786-5.64583 178.484-6.4375 179.182-7.22917 180.01-7.625 180.969-7.625 181.531-7.625 182.089-7.46354 182.641-7.14062 183.193-6.81771 183.625-6.34375 183.938-5.71875 184.25-5.09375 184.406-4.44792 184.406-3.78125ZM230.333-22.8437C230.333-19.5312 229.76-16.3906 228.615-13.4219 227.469-10.4531 225.937-8.13542 224.021-6.46875 221.333-4.13542 218.708-2.47396 216.146-1.48437 213.583-0.494792 210.698 0 207.49 0L192.646 0 192.646-43.6562 210.771-43.6562C214.812-43.6562 218.312-42.7187 221.271-40.8437 224.229-38.9687 226.479-36.4323 228.021-33.2344 229.562-30.0365 230.333-26.5729 230.333-22.8437ZM223.427-22.5937C223.427-25.5104 222.833-28.1458 221.646-30.5 220.458-32.8542 218.828-34.6719 216.755-35.9531 214.682-37.2344 212.385-37.875 209.865-37.875L198.802-37.875 198.802-5.75 206.927-5.75C210.177-5.75 213.047-6.4375 215.536-7.8125 218.026-9.1875 219.964-11.1562 221.349-13.7187 222.734-16.2812 223.427-19.2396 223.427-22.5937ZM264.042-0.3125C262.333 0.145833 260.896 0.375 259.729 0.375 256.125 0.375 254.292-1.33333 254.229-4.75L254.104-4.75C253.167-3.27083 252-1.98958 250.604-0.90625 249.208 0.177083 247.323 0.71875 244.948 0.71875 243.281 0.71875 241.625 0.322917 239.979-0.46875 238.333-1.26042 237-2.39062 235.979-3.85937 234.958-5.32812 234.448-6.98958 234.448-8.84375 234.448-10.7812 234.99-12.401 236.073-13.7031 237.156-15.0052 238.594-16.0104 240.385-16.7187 242.177-17.4271 244.099-17.9531 246.151-18.2969 248.203-18.6406 250.875-18.9792 254.167-19.3125 254.104-20.7083 253.682-21.8542 252.901-22.75 252.12-23.6458 251.177-24.2812 250.073-24.6562 248.969-25.0312 247.906-25.2187 246.885-25.2187 245.51-25.2187 244.208-24.9896 242.979-24.5312 241.75-24.0729 240.677-23.5365 239.76-22.9219 238.844-22.3073 237.865-21.5833 236.823-20.75L236.823-27.0625C240.781-29.3333 244.521-30.4687 248.042-30.4687 250.354-30.4687 252.422-29.9948 254.245-29.0469 256.068-28.099 257.495-26.75 258.526-25 259.557-23.25 260.073-21.3542 260.073-19.3125L260.073-7.09375C260.073-5.53125 260.708-4.75 261.979-4.75 262.667-4.75 263.354-4.89583 264.042-5.1875ZM254.167-14.7187 251.292-14.2812C247.083-13.7187 244.281-13.0573 242.885-12.2969 241.49-11.5365 240.792-10.4271 240.792-8.96875 240.792-7.67708 241.333-6.58333 242.417-5.6875 243.5-4.79167 244.75-4.34375 246.167-4.34375 247.729-4.34375 249.411-5.02604 251.214-6.39062 253.016-7.75521 254-10.5312 254.167-14.7187ZM283.896-0.3125C281.896 0.375 279.979 0.71875 278.146 0.71875 272.667 0.71875 269.927-1.80208 269.927-6.84375L269.927-24.7812 264.958-24.7812 264.958-29.75 269.927-29.75 270.521-38.6562 275.833-38.6562 275.833-29.75 283.896-29.75 283.896-24.7812 275.833-24.7812 275.833-8.71875C275.833-5.96875 277.24-4.59375 280.052-4.59375 281.26-4.59375 282.542-4.9375 283.896-5.625ZM316.177-0.3125C314.469 0.145833 313.031 0.375 311.865 0.375 308.26 0.375 306.427-1.33333 306.365-4.75L306.24-4.75C305.302-3.27083 304.135-1.98958 302.74-0.90625 301.344 0.177083 299.458 0.71875 297.083 0.71875 295.417 0.71875 293.76 0.322917 292.115-0.46875 290.469-1.26042 289.135-2.39062 288.115-3.85937 287.094-5.32812 286.583-6.98958 286.583-8.84375 286.583-10.7812 287.125-12.401 288.208-13.7031 289.292-15.0052 290.729-16.0104 292.521-16.7187 294.312-17.4271 296.234-17.9531 298.286-18.2969 300.339-18.6406 303.01-18.9792 306.302-19.3125 306.24-20.7083 305.818-21.8542 305.036-22.75 304.255-23.6458 303.312-24.2812 302.208-24.6562 301.104-25.0312 300.042-25.2187 299.021-25.2187 297.646-25.2187 296.344-24.9896 295.115-24.5312 293.885-24.0729 292.812-23.5365 291.896-22.9219 290.979-22.3073 290-21.5833 288.958-20.75L288.958-27.0625C292.917-29.3333 296.656-30.4687 300.177-30.4687 302.49-30.4687 304.557-29.9948 306.38-29.0469 308.203-28.099 309.63-26.75 310.661-25 311.693-23.25 312.208-21.3542 312.208-19.3125L312.208-7.09375C312.208-5.53125 312.844-4.75 314.115-4.75 314.802-4.75 315.49-4.89583 316.177-5.1875ZM306.302-14.7187 303.427-14.2812C299.219-13.7187 296.417-13.0573 295.021-12.2969 293.625-11.5365 292.927-10.4271 292.927-8.96875 292.927-7.67708 293.469-6.58333 294.552-5.6875 295.635-4.79167 296.885-4.34375 298.302-4.34375 299.865-4.34375 301.547-5.02604 303.349-6.39062 305.151-7.75521 306.135-10.5312 306.302-14.7187ZM355.625 0 348.437 0 344.094-12.9375 328.344-12.9375 324 0 316.875 0 332.969-43.6562 339.219-43.6562ZM342.094-18.6875 336.156-35.9062 336.031-35.9062 330.187-18.6875ZM378.229-23.875C376.792-24.4375 375.729-24.7187 375.042-24.7187 372.75-24.7187 370.802-23.651 369.198-21.5156 367.594-19.3802 366.792-16.75 366.792-13.625L366.792 0 360.885 0 360.885-29.75 366.26-29.75 366.729-24.1875 366.854-24.1875C368.271-28.2083 371.021-30.2187 375.104-30.2187 376.208-30.2187 377.25-30.0833 378.229-29.8125ZM400.573-23.875C399.135-24.4375 398.073-24.7187 397.385-24.7187 395.094-24.7187 393.146-23.651 391.542-21.5156 389.937-19.3802 389.135-16.75 389.135-13.625L389.135 0 383.229 0 383.229-29.75 388.604-29.75 389.073-24.1875 389.198-24.1875C390.615-28.2083 393.365-30.2187 397.448-30.2187 398.552-30.2187 399.594-30.0833 400.573-29.8125ZM432.479-0.3125C430.771 0.145833 429.333 0.375 428.167 0.375 424.562 0.375 422.729-1.33333 422.667-4.75L422.542-4.75C421.604-3.27083 420.437-1.98958 419.042-0.90625 417.646 0.177083 415.76 0.71875 413.385 0.71875 411.719 0.71875 410.062 0.322917 408.417-0.46875 406.771-1.26042 405.437-2.39062 404.417-3.85937 403.396-5.32812 402.885-6.98958 402.885-8.84375 402.885-10.7812 403.427-12.401 404.51-13.7031 405.594-15.0052 407.031-16.0104 408.823-16.7187 410.615-17.4271 412.536-17.9531 414.589-18.2969 416.641-18.6406 419.312-18.9792 422.604-19.3125 422.542-20.7083 422.12-21.8542 421.339-22.75 420.557-23.6458 419.615-24.2812 418.51-24.6562 417.406-25.0312 416.344-25.2187 415.323-25.2187 413.948-25.2187 412.646-24.9896 411.417-24.5312 410.187-24.0729 409.115-23.5365 408.198-22.9219 407.281-22.3073 406.302-21.5833 405.26-20.75L405.26-27.0625C409.219-29.3333 412.958-30.4687 416.479-30.4687 418.792-30.4687 420.859-29.9948 422.682-29.0469 424.505-28.099 425.932-26.75 426.964-25 427.995-23.25 428.51-21.3542 428.51-19.3125L428.51-7.09375C428.51-5.53125 429.146-4.75 430.417-4.75 431.104-4.75 431.792-4.89583 432.479-5.1875ZM422.604-14.7187 419.729-14.2812C415.521-13.7187 412.719-13.0573 411.323-12.2969 409.927-11.5365 409.229-10.4271 409.229-8.96875 409.229-7.67708 409.771-6.58333 410.854-5.6875 411.937-4.79167 413.187-4.34375 414.604-4.34375 416.167-4.34375 417.849-5.02604 419.651-6.39062 421.453-7.75521 422.437-10.5312 422.604-14.7187ZM461.99-29.75 448.74 5.9375C447.615 8.91667 446.229 11.1146 444.583 12.5312 442.937 13.9479 440.979 14.6562 438.708 14.6562 437.312 14.6562 435.771 14.375 434.083 13.8125L434.083 8.5625C435.604 9.16667 436.844 9.46875 437.802 9.46875 438.948 9.46875 439.937 9.09375 440.771 8.34375 441.604 7.59375 442.297 6.61458 442.849 5.40625 443.401 4.19792 444.042 2.5 444.771 0.3125L432.365-29.75 439.146-29.75 447.771-6.03125 447.927-6.03125 455.646-29.75Z" fill="#FFFFFF" transform="matrix(1 0 0 1 60.9773 101)"/><path d="M3.40625-22.4375C3.40625-24.625 4.18229-26.4896 5.73437-28.0312 7.28646-29.5729 9.14583-30.3437 11.3125-30.3437 13.5-30.3437 15.3698-29.5729 16.9219-28.0312 18.474-26.4896 19.25-24.625 19.25-22.4375 19.25-20.25 18.474-18.3802 16.9219-16.8281 15.3698-15.276 13.5-14.5 11.3125-14.5 9.14583-14.5 7.28646-15.276 5.73437-16.8281 4.18229-18.3802 3.40625-20.25 3.40625-22.4375Z" fill="#FFFFFF" transform="matrix(1 0 0 1 101.082 178)"/><path d="M35.4062-3.40625C32.8854-1.92708 30.5573-0.869792 28.4219-0.234375 26.2865 0.401042 24.1042 0.71875 21.875 0.71875 18.1875 0.71875 14.8021-0.25 11.7187-2.1875 8.63542-4.125 6.22917-6.79167 4.5-10.1875 2.77083-13.5833 1.90625-17.3542 1.90625-21.5 1.90625-25.7917 2.79687-29.6823 4.57812-33.1719 6.35937-36.6615 8.84896-39.3958 12.0469-41.375 15.2448-43.3542 18.8021-44.3437 22.7187-44.3437 25.3854-44.3437 27.6979-43.974 29.6562-43.2344 31.6146-42.4948 33.5312-41.5625 35.4062-40.4375L35.4062-33.2187C33.6771-34.7396 31.8229-36.0365 29.8437-37.1094 27.8646-38.1823 25.5521-38.7187 22.9062-38.7187 20.0729-38.7187 17.5469-37.9062 15.3281-36.2812 13.1094-34.6562 11.3854-32.5208 10.1562-29.875 8.92708-27.2292 8.3125-24.4375 8.3125-21.5 8.3125-18.625 8.92187-15.9115 10.1406-13.3594 11.3594-10.8073 13.0365-8.79687 15.1719-7.32812 17.3073-5.85937 19.6146-5.125 22.0937-5.125 24.9062-5.125 27.375-5.68229 29.5-6.79687 31.625-7.91146 33.5937-9.1875 35.4062-10.625ZM70.3333-14.9062C70.3333-12.0729 69.6406-9.44792 68.2552-7.03125 66.8698-4.61458 64.9896-2.71875 62.6146-1.34375 60.2396 0.03125 57.7292 0.71875 55.0833 0.71875 52.1667 0.71875 49.5104 0.0364583 47.1146-1.32812 44.7187-2.69271 42.849-4.56771 41.5052-6.95312 40.1615-9.33854 39.4896-11.9896 39.4896-14.9062 39.4896-17.8229 40.1771-20.474 41.5521-22.8594 42.9271-25.2448 44.7917-27.1094 47.1458-28.4531 49.5-29.7969 52.1042-30.4687 54.9583-30.4687 57.7708-30.4687 60.3489-29.8021 62.6927-28.4687 65.0365-27.1354 66.8958-25.2552 68.2708-22.8281 69.6458-20.401 70.3333-17.7604 70.3333-14.9062ZM63.9896-14.9062C63.9896-16.6979 63.6094-18.3906 62.849-19.9844 62.0885-21.5781 61.0052-22.849 59.599-23.7969 58.1927-24.7448 56.6458-25.2187 54.9583-25.2187 52.4375-25.2187 50.2812-24.2187 48.4896-22.2187 46.6979-20.2187 45.8021-17.7604 45.8021-14.8437 45.8021-11.9896 46.6875-9.55729 48.4583-7.54687 50.2292-5.53646 52.3125-4.53125 54.7083-4.53125 57.3125-4.53125 59.5104-5.53125 61.3021-7.53125 63.0937-9.53125 63.9896-11.9896 63.9896-14.9062ZM105.854-14.9062C105.854-12.0729 105.161-9.44792 103.776-7.03125 102.391-4.61458 100.51-2.71875 98.1354-1.34375 95.7604 0.03125 93.25 0.71875 90.6042 0.71875 87.6875 0.71875 85.0312 0.0364583 82.6354-1.32812 80.2396-2.69271 78.3698-4.56771 77.026-6.95312 75.6823-9.33854 75.0104-11.9896 75.0104-14.9062 75.0104-17.8229 75.6979-20.474 77.0729-22.8594 78.4479-25.2448 80.3125-27.1094 82.6667-28.4531 85.0208-29.7969 87.625-30.4687 90.4792-30.4687 93.2917-30.4687 95.8698-29.8021 98.2135-28.4687 100.557-27.1354 102.417-25.2552 103.792-22.8281 105.167-20.401 105.854-17.7604 105.854-14.9062ZM99.5104-14.9062C99.5104-16.6979 99.1302-18.3906 98.3698-19.9844 97.6094-21.5781 96.526-22.849 95.1198-23.7969 93.7135-24.7448 92.1667-25.2187 90.4792-25.2187 87.9583-25.2187 85.8021-24.2187 84.0104-22.2187 82.2187-20.2187 81.3229-17.7604 81.3229-14.8437 81.3229-11.9896 82.2083-9.55729 83.9792-7.54687 85.75-5.53646 87.8333-4.53125 90.2292-4.53125 92.8333-4.53125 95.0312-5.53125 96.8229-7.53125 98.6146-9.53125 99.5104-11.9896 99.5104-14.9062ZM130.156-23.875C128.719-24.4375 127.656-24.7187 126.969-24.7187 124.677-24.7187 122.729-23.651 121.125-21.5156 119.521-19.3802 118.719-16.75 118.719-13.625L118.719 0 112.812 0 112.812-29.75 118.188-29.75 118.656-24.1875 118.781-24.1875C120.198-28.2083 122.948-30.2187 127.031-30.2187 128.135-30.2187 129.177-30.0833 130.156-29.8125ZM161.844 0 156.406 0 156.031-5 155.906-5C153.448-1.1875 150.229 0.71875 146.25 0.71875 143.792 0.71875 141.562 0.0572916 139.562-1.26562 137.562-2.58854 135.99-4.42187 134.844-6.76562 133.698-9.10937 133.125-11.6979 133.125-14.5312 133.125-17.5521 133.771-20.276 135.062-22.7031 136.354-25.1302 138.068-27.0312 140.203-28.4062 142.339-29.7812 144.646-30.4687 147.125-30.4687 148.938-30.4687 150.547-30.1458 151.953-29.5 153.359-28.8542 154.698-28.0417 155.969-27.0625L155.969-43.6562 161.844-43.6562ZM155.969-15.375 155.969-21C153.24-23.6458 150.573-24.9687 147.969-24.9687 145.51-24.9687 143.479-24.0208 141.875-22.125 140.271-20.2292 139.469-17.8229 139.469-14.9062 139.469-12.0104 140.245-9.60417 141.797-7.6875 143.349-5.77083 145.26-4.8125 147.531-4.8125 148.823-4.8125 150.125-5.19271 151.438-5.95312 152.75-6.71354 153.833-7.88542 154.688-9.46875 155.542-11.0521 155.969-13.0208 155.969-15.375ZM177.656-39.6875C177.656-38.5 177.349-37.5417 176.734-36.8125 176.12-36.0833 175.344-35.7187 174.406-35.7187 173.385-35.7187 172.583-36.1042 172-36.875 171.417-37.6458 171.125-38.5833 171.125-39.6875 171.125-40.8125 171.411-41.7448 171.984-42.4844 172.557-43.224 173.344-43.5937 174.344-43.5937 175.323-43.5937 176.12-43.2448 176.734-42.5469 177.349-41.849 177.656-40.8958 177.656-39.6875ZM177.344 0 171.469 0 171.469-29.75 177.344-29.75ZM212.062 0 206.188 0 206.188-18.3125C206.188-20.2292 205.745-21.8177 204.859-23.0781 203.974-24.3385 202.562-24.9687 200.625-24.9687 198.875-24.9687 197.359-24.4323 196.078-23.3594 194.797-22.2865 193.839-20.9219 193.203-19.2656 192.568-17.6094 192.25-15.9062 192.25-14.1562L192.25 0 186.344 0 186.344-29.75 191.719-29.75 192.156-24.7812 192.312-24.7812C192.917-25.8021 193.552-26.6979 194.219-27.4687 194.885-28.2396 195.849-28.9323 197.109-29.5469 198.37-30.1615 199.927-30.4687 201.781-30.4687 205.094-30.4687 207.635-29.4531 209.406-27.4219 211.177-25.3906 212.062-23.0312 212.062-20.3437ZM247.427-0.3125C245.719 0.145833 244.281 0.375 243.115 0.375 239.51 0.375 237.677-1.33333 237.615-4.75L237.49-4.75C236.552-3.27083 235.385-1.98958 233.99-0.90625 232.594 0.177083 230.708 0.71875 228.333 0.71875 226.667 0.71875 225.01 0.322917 223.365-0.46875 221.719-1.26042 220.385-2.39062 219.365-3.85937 218.344-5.32812 217.833-6.98958 217.833-8.84375 217.833-10.7812 218.375-12.401 219.458-13.7031 220.542-15.0052 221.979-16.0104 223.771-16.7187 225.562-17.4271 227.484-17.9531 229.536-18.2969 231.589-18.6406 234.26-18.9792 237.552-19.3125 237.49-20.7083 237.068-21.8542 236.286-22.75 235.505-23.6458 234.562-24.2812 233.458-24.6562 232.354-25.0312 231.292-25.2187 230.271-25.2187 228.896-25.2187 227.594-24.9896 226.365-24.5312 225.135-24.0729 224.062-23.5365 223.146-22.9219 222.229-22.3073 221.25-21.5833 220.208-20.75L220.208-27.0625C224.167-29.3333 227.906-30.4687 231.427-30.4687 233.74-30.4687 235.807-29.9948 237.63-29.0469 239.453-28.099 240.88-26.75 241.911-25 242.943-23.25 243.458-21.3542 243.458-19.3125L243.458-7.09375C243.458-5.53125 244.094-4.75 245.365-4.75 246.052-4.75 246.74-4.89583 247.427-5.1875ZM237.552-14.7187 234.677-14.2812C230.469-13.7187 227.667-13.0573 226.271-12.2969 224.875-11.5365 224.177-10.4271 224.177-8.96875 224.177-7.67708 224.719-6.58333 225.802-5.6875 226.885-4.79167 228.135-4.34375 229.552-4.34375 231.115-4.34375 232.797-5.02604 234.599-6.39062 236.401-7.75521 237.385-10.5312 237.552-14.7187ZM267.281-0.3125C265.281 0.375 263.365 0.71875 261.531 0.71875 256.052 0.71875 253.312-1.80208 253.312-6.84375L253.312-24.7812 248.344-24.7812 248.344-29.75 253.312-29.75 253.906-38.6562 259.219-38.6562 259.219-29.75 267.281-29.75 267.281-24.7812 259.219-24.7812 259.219-8.71875C259.219-5.96875 260.625-4.59375 263.438-4.59375 264.646-4.59375 265.927-4.9375 267.281-5.625ZM298.969-14.9687 276.844-14.9687C276.99-12.5312 277.62-10.5677 278.734-9.07812 279.849-7.58854 281.141-6.53646 282.609-5.92187 284.078-5.30729 285.479-5 286.812-5 290.521-5 294.229-6.85417 297.938-10.5625L297.938-3.40625C296.229-2.26042 294.443-1.28646 292.578-0.484375 290.714 0.317708 288.448 0.71875 285.781 0.71875 282.698 0.71875 280-0.0104167 277.688-1.46875 275.375-2.92708 273.599-4.85938 272.359-7.26562 271.12-9.67187 270.5-12.2187 270.5-14.9062 270.5-17.8854 271.188-20.5521 272.562-22.9062 273.938-25.2604 275.781-27.1094 278.094-28.4531 280.406-29.7969 282.865-30.4687 285.469-30.4687 287.552-30.4687 289.505-30.0417 291.328-29.1875 293.151-28.3333 294.63-27.1875 295.766-25.75 296.901-24.3125 297.719-22.75 298.219-21.0625 298.719-19.375 298.969-17.3437 298.969-14.9687ZM292.062-19.7187C291.792-21.6354 291.016-23.0937 289.734-24.0937 288.453-25.0937 287.031-25.5937 285.469-25.5937 281.906-25.5937 279.281-23.6354 277.594-19.7187ZM326.458-9.09375C326.458-7.36458 325.911-5.74479 324.818-4.23437 323.724-2.72396 322.188-1.52083 320.208-0.625 318.229 0.270833 315.938 0.71875 313.333 0.71875 311.583 0.71875 309.974 0.536458 308.505 0.171875 307.036-0.192708 305.854-0.588542 304.958-1.01562 304.062-1.44271 303.094-1.9375 302.052-2.5L302.052-9.03125C305.594-6.07292 309.417-4.59375 313.521-4.59375 315.271-4.59375 316.807-4.93229 318.13-5.60937 319.453-6.28646 320.115-7.27083 320.115-8.5625 320.115-9.58333 319.615-10.4219 318.615-11.0781 317.615-11.7344 315.771-12.3542 313.083-12.9375 310.25-13.5625 308.281-14.1354 307.177-14.6562 306.073-15.1771 305.094-15.7917 304.24-16.5 303.51-17.3333 302.964-18.0833 302.599-18.75 302.234-19.4167 302.052-20.3333 302.052-21.5 302.052-24.125 303.167-26.276 305.396-27.9531 307.625-29.6302 310.5-30.4687 314.021-30.4687 317.604-30.4687 321.083-29.5729 324.458-27.7812L324.458-21.5625C322.271-23.125 320.302-24.125 318.552-24.5625 316.802-25 315.333-25.2187 314.146-25.2187 312.542-25.2187 311.182-24.9115 310.068-24.2969 308.953-23.6823 308.396-22.8958 308.396-21.9375 308.396-20.9583 308.938-20.1927 310.021-19.6406 311.104-19.0885 312.677-18.5833 314.74-18.125 318.927-17.1875 321.927-16.0208 323.74-14.625 325.552-13.2292 326.458-11.3854 326.458-9.09375Z" fill="#FFFFFF" transform="matrix(1 0 0 1 204.207 178)"/><path d="M3.40625-22.4375C3.40625-24.625 4.18229-26.4896 5.73437-28.0312 7.28646-29.5729 9.14583-30.3437 11.3125-30.3437 13.5-30.3437 15.3698-29.5729 16.9219-28.0312 18.474-26.4896 19.25-24.625 19.25-22.4375 19.25-20.25 18.474-18.3802 16.9219-16.8281 15.3698-15.276 13.5-14.5 11.3125-14.5 9.14583-14.5 7.28646-15.276 5.73437-16.8281 4.18229-18.3802 3.40625-20.25 3.40625-22.4375Z" fill="#FFFFFF" transform="matrix(1 0 0 1 101.082 255)"/><path d="M41.8437-22.8437C41.8437-19.5312 41.2708-16.3906 40.125-13.4219 38.9792-10.4531 37.4479-8.13542 35.5312-6.46875 32.8437-4.13542 30.2187-2.47396 27.6562-1.48437 25.0937-0.494792 22.2083 0 19 0L4.15625 0 4.15625-43.6562 22.2812-43.6562C26.3229-43.6562 29.8229-42.7187 32.7812-40.8437 35.7396-38.9687 37.9896-36.4323 39.5312-33.2344 41.0729-30.0365 41.8437-26.5729 41.8437-22.8437ZM34.9375-22.5937C34.9375-25.5104 34.3437-28.1458 33.1562-30.5 31.9687-32.8542 30.3385-34.6719 28.2656-35.9531 26.1927-37.2344 23.8958-37.875 21.375-37.875L10.3125-37.875 10.3125-5.75 18.4375-5.75C21.6875-5.75 24.5573-6.4375 27.0469-7.8125 29.5365-9.1875 31.474-11.1562 32.8594-13.7187 34.2448-16.2812 34.9375-19.2396 34.9375-22.5937ZM55.0521-39.6875C55.0521-38.5 54.7448-37.5417 54.1302-36.8125 53.5156-36.0833 52.7396-35.7187 51.8021-35.7187 50.7812-35.7187 49.9792-36.1042 49.3958-36.875 48.8125-37.6458 48.5208-38.5833 48.5208-39.6875 48.5208-40.8125 48.8073-41.7448 49.3802-42.4844 49.9531-43.224 50.7396-43.5937 51.7396-43.5937 52.7187-43.5937 53.5156-43.2448 54.1302-42.5469 54.7448-41.849 55.0521-40.8958 55.0521-39.6875ZM54.7396 0 48.8646 0 48.8646-29.75 54.7396-29.75ZM105.333 0 99.4583 0 99.4583-18.5C99.4583-20.5833 99.0365-22.1823 98.1927-23.2969 97.349-24.4115 96.1875-24.9687 94.7083-24.9687 92.6667-24.9687 90.9635-23.9375 89.599-21.875 88.2344-19.8125 87.5521-17.2187 87.5521-14.0937L87.5521 0 81.6771 0 81.6771-18.5C81.6771-20.0208 81.3594-21.4792 80.724-22.875 80.0885-24.2708 78.8229-24.9687 76.9271-24.9687 74.8646-24.9687 73.1562-23.9271 71.8021-21.8437 70.4479-19.7604 69.7708-17.0625 69.7708-13.75L69.7708 0 63.8646 0 63.8646-29.75 69.3021-29.75 69.7708-25.2812C70.8542-26.8437 72.0156-28.099 73.2552-29.0469 74.4948-29.9948 76.2917-30.4687 78.6458-30.4687 82.7708-30.4687 85.5521-28.3958 86.9896-24.25 87.6979-25.75 88.5365-26.9375 89.5052-27.8125 90.474-28.6875 91.5208-29.349 92.6458-29.7969 93.7708-30.2448 94.9792-30.4687 96.2708-30.4687 98.9792-30.4687 101.167-29.5365 102.833-27.6719 104.5-25.8073 105.333-23.3229 105.333-20.2187ZM140.271-14.9687 118.146-14.9687C118.292-12.5312 118.922-10.5677 120.036-9.07812 121.151-7.58854 122.443-6.53646 123.911-5.92187 125.38-5.30729 126.781-5 128.115-5 131.823-5 135.531-6.85417 139.24-10.5625L139.24-3.40625C137.531-2.26042 135.745-1.28646 133.88-0.484375 132.016 0.317708 129.75 0.71875 127.083 0.71875 124 0.71875 121.302-0.0104167 118.99-1.46875 116.677-2.92708 114.901-4.85938 113.661-7.26562 112.422-9.67187 111.802-12.2187 111.802-14.9062 111.802-17.8854 112.49-20.5521 113.865-22.9062 115.24-25.2604 117.083-27.1094 119.396-28.4531 121.708-29.7969 124.167-30.4687 126.771-30.4687 128.854-30.4687 130.807-30.0417 132.63-29.1875 134.453-28.3333 135.932-27.1875 137.068-25.75 138.203-24.3125 139.021-22.75 139.521-21.0625 140.021-19.375 140.271-17.3437 140.271-14.9687ZM133.365-19.7187C133.094-21.6354 132.318-23.0937 131.036-24.0937 129.755-25.0937 128.333-25.5937 126.771-25.5937 123.208-25.5937 120.583-23.6354 118.896-19.7187ZM171.385 0 165.51 0 165.51-18.3125C165.51-20.2292 165.068-21.8177 164.182-23.0781 163.297-24.3385 161.885-24.9687 159.948-24.9687 158.198-24.9687 156.682-24.4323 155.401-23.3594 154.12-22.2865 153.161-20.9219 152.526-19.2656 151.891-17.6094 151.573-15.9062 151.573-14.1562L151.573 0 145.667 0 145.667-29.75 151.042-29.75 151.479-24.7812 151.635-24.7812C152.24-25.8021 152.875-26.6979 153.542-27.4687 154.208-28.2396 155.172-28.9323 156.432-29.5469 157.693-30.1615 159.25-30.4687 161.104-30.4687 164.417-30.4687 166.958-29.4531 168.729-27.4219 170.5-25.3906 171.385-23.0312 171.385-20.3437ZM201.562-9.09375C201.562-7.36458 201.016-5.74479 199.922-4.23437 198.828-2.72396 197.292-1.52083 195.312-0.625 193.333 0.270833 191.042 0.71875 188.437 0.71875 186.687 0.71875 185.078 0.536458 183.609 0.171875 182.141-0.192708 180.958-0.588542 180.062-1.01562 179.167-1.44271 178.198-1.9375 177.156-2.5L177.156-9.03125C180.698-6.07292 184.521-4.59375 188.625-4.59375 190.375-4.59375 191.911-4.93229 193.234-5.60937 194.557-6.28646 195.219-7.27083 195.219-8.5625 195.219-9.58333 194.719-10.4219 193.719-11.0781 192.719-11.7344 190.875-12.3542 188.187-12.9375 185.354-13.5625 183.385-14.1354 182.281-14.6562 181.177-15.1771 180.198-15.7917 179.344-16.5 178.615-17.3333 178.068-18.0833 177.703-18.75 177.339-19.4167 177.156-20.3333 177.156-21.5 177.156-24.125 178.271-26.276 180.5-27.9531 182.729-29.6302 185.604-30.4687 189.125-30.4687 192.708-30.4687 196.187-29.5729 199.562-27.7812L199.562-21.5625C197.375-23.125 195.406-24.125 193.656-24.5625 191.906-25 190.437-25.2187 189.25-25.2187 187.646-25.2187 186.286-24.9115 185.172-24.2969 184.057-23.6823 183.5-22.8958 183.5-21.9375 183.5-20.9583 184.042-20.1927 185.125-19.6406 186.208-19.0885 187.781-18.5833 189.844-18.125 194.031-17.1875 197.031-16.0208 198.844-14.625 200.656-13.2292 201.562-11.3854 201.562-9.09375ZM214.323-39.6875C214.323-38.5 214.016-37.5417 213.401-36.8125 212.786-36.0833 212.01-35.7187 211.073-35.7187 210.052-35.7187 209.25-36.1042 208.667-36.875 208.083-37.6458 207.792-38.5833 207.792-39.6875 207.792-40.8125 208.078-41.7448 208.651-42.4844 209.224-43.224 210.01-43.5937 211.01-43.5937 211.99-43.5937 212.786-43.2448 213.401-42.5469 214.016-41.849 214.323-40.8958 214.323-39.6875ZM214.01 0 208.135 0 208.135-29.75 214.01-29.75ZM251.948-14.9062C251.948-12.0729 251.255-9.44792 249.87-7.03125 248.484-4.61458 246.604-2.71875 244.229-1.34375 241.854 0.03125 239.344 0.71875 236.698 0.71875 233.781 0.71875 231.125 0.0364583 228.729-1.32812 226.333-2.69271 224.464-4.56771 223.12-6.95312 221.776-9.33854 221.104-11.9896 221.104-14.9062 221.104-17.8229 221.792-20.474 223.167-22.8594 224.542-25.2448 226.406-27.1094 228.76-28.4531 231.115-29.7969 233.719-30.4687 236.573-30.4687 239.385-30.4687 241.964-29.8021 244.307-28.4687 246.651-27.1354 248.51-25.2552 249.885-22.8281 251.26-20.401 251.948-17.7604 251.948-14.9062ZM245.604-14.9062C245.604-16.6979 245.224-18.3906 244.464-19.9844 243.703-21.5781 242.62-22.849 241.214-23.7969 239.807-24.7448 238.26-25.2187 236.573-25.2187 234.052-25.2187 231.896-24.2187 230.104-22.2187 228.312-20.2187 227.417-17.7604 227.417-14.8437 227.417-11.9896 228.302-9.55729 230.073-7.54687 231.844-5.53646 233.927-4.53125 236.323-4.53125 238.927-4.53125 241.125-5.53125 242.917-7.53125 244.708-9.53125 245.604-11.9896 245.604-14.9062ZM284.25 0 278.375 0 278.375-18.3125C278.375-20.2292 277.932-21.8177 277.047-23.0781 276.161-24.3385 274.75-24.9687 272.812-24.9687 271.062-24.9687 269.547-24.4323 268.266-23.3594 266.984-22.2865 266.026-20.9219 265.391-19.2656 264.755-17.6094 264.437-15.9062 264.437-14.1562L264.437 0 258.531 0 258.531-29.75 263.906-29.75 264.344-24.7812 264.5-24.7812C265.104-25.8021 265.74-26.6979 266.406-27.4687 267.073-28.2396 268.036-28.9323 269.297-29.5469 270.557-30.1615 272.115-30.4687 273.969-30.4687 277.281-30.4687 279.823-29.4531 281.594-27.4219 283.365-25.3906 284.25-23.0312 284.25-20.3437ZM314.427-9.09375C314.427-7.36458 313.88-5.74479 312.786-4.23437 311.693-2.72396 310.156-1.52083 308.177-0.625 306.198 0.270833 303.906 0.71875 301.302 0.71875 299.552 0.71875 297.943 0.536458 296.474 0.171875 295.005-0.192708 293.823-0.588542 292.927-1.01562 292.031-1.44271 291.062-1.9375 290.021-2.5L290.021-9.03125C293.562-6.07292 297.385-4.59375 301.49-4.59375 303.24-4.59375 304.776-4.93229 306.099-5.60937 307.422-6.28646 308.083-7.27083 308.083-8.5625 308.083-9.58333 307.583-10.4219 306.583-11.0781 305.583-11.7344 303.74-12.3542 301.052-12.9375 298.219-13.5625 296.25-14.1354 295.146-14.6562 294.042-15.1771 293.062-15.7917 292.208-16.5 291.479-17.3333 290.932-18.0833 290.568-18.75 290.203-19.4167 290.021-20.3333 290.021-21.5 290.021-24.125 291.135-26.276 293.365-27.9531 295.594-29.6302 298.469-30.4687 301.99-30.4687 305.573-30.4687 309.052-29.5729 312.427-27.7812L312.427-21.5625C310.24-23.125 308.271-24.125 306.521-24.5625 304.771-25 303.302-25.2187 302.115-25.2187 300.51-25.2187 299.151-24.9115 298.036-24.2969 296.922-23.6823 296.365-22.8958 296.365-21.9375 296.365-20.9583 296.906-20.1927 297.99-19.6406 299.073-19.0885 300.646-18.5833 302.708-18.125 306.896-17.1875 309.896-16.0208 311.708-14.625 313.521-13.2292 314.427-11.3854 314.427-9.09375Z" fill="#FFFFFF" transform="matrix(1 0 0 1 204.207 255)"/></g></g><path d="M2623 1814.5C2623 1786.06 2646.06 1763 2674.5 1763L3191.5 1763C3219.94 1763 3243 1786.06 3243 1814.5L3243 2020.5C3243 2048.94 3219.94 2072 3191.5 2072L2674.5 2072C2646.06 2072 2623 2048.94 2623 2020.5Z" fill="url(#fill28)" fill-rule="evenodd"/><text fill="#FFFFFF" font-family="Abadi,Abadi_MSFontService,sans-serif" font-weight="400" font-size="64" transform="matrix(1 0 0 1 2670.98 1862)">Xarray.DataArray</text><text fill="#FFFFFF" font-family="Arial,Arial_MSFontService,sans-serif" font-weight="400" font-size="64" transform="matrix(1 0 0 1 2711.08 1939)">•</text><text fill="#FFFFFF" font-family="Abadi,Abadi_MSFontService,sans-serif" font-weight="400" font-size="64" transform="matrix(1 0 0 1 2814.21 1939)">Coordinates</text><text fill="#FFFFFF" font-family="Arial,Arial_MSFontService,sans-serif" font-weight="400" font-size="64" transform="matrix(1 0 0 1 2711.08 2016)">•</text><text fill="#FFFFFF" font-family="Abadi,Abadi_MSFontService,sans-serif" font-weight="400" font-size="64" transform="matrix(1 0 0 1 2814.21 2016)">Dimensions</text><rect x="2933" y="1421" width="29.0002" height="30.9999"/><rect x="2933" y="1469" width="29.0002" height="30.0002"/><rect x="2933" y="1516" width="29.0002" height="29.9999"/><rect x="2933" y="843" width="29.0002" height="31.0003"/><rect x="2933" y="890" width="29.0002" height="30.9999"/><rect x="2933" y="937" width="29.0002" height="30.9999"/></g></svg>